<svg width="40" height="40" viewBox="0 0 40 40" fill="none" xmlns="http://www.w3.org/2000/svg">
<path d="M19.9998 9.375C19.5686 9.375 19.2186 9.725 19.2186 10.1562C19.2186 10.5875 19.5686 10.9375 19.9998 10.9375C20.4311 10.9375 20.7811 10.5875 20.7811 10.1562C20.7811 9.725 20.4311 9.375 19.9998 9.375Z" fill="black"/>
<path d="M31.5311 0.931717C28.5997 0.322187 24.6123 0 19.9999 0C15.3875 0 11.4001 0.322187 8.46876 0.931717C5.18837 1.61382 3.59369 2.58679 3.59369 3.90624V8.06483C3.59369 8.42834 3.79924 8.56975 4.00056 8.86842C8.01641 14.2271 11.1016 17.4463 16.0937 21.4678V39.2187C16.0937 39.4484 16.1948 39.6666 16.3702 39.8151C16.5507 39.9677 16.7845 40.0262 17.0041 39.9892C19.7549 39.528 22.2229 37.9247 23.7754 35.5904C23.8607 35.4622 23.9061 35.3117 23.9061 35.1577V21.4678C26.4577 19.4122 28.4298 17.6309 30.2635 15.7262C32.1274 13.7901 33.8964 11.6751 35.9996 8.86811C36.1685 8.60139 36.4007 8.45287 36.4057 8.07616C36.4057 8.07241 36.4061 8.06866 36.4061 8.06491V3.90624C36.4061 2.58679 34.8114 1.61382 31.5311 0.931717ZM9.07985 2.40234C11.8845 1.85297 15.6605 1.5625 19.9999 1.5625C24.3393 1.5625 28.1154 1.85297 30.92 2.40234C33.91 2.98812 34.7653 3.69038 34.8415 3.90624C34.7653 4.1221 33.91 4.82437 30.92 5.41015C28.1154 5.95952 24.3393 6.24999 19.9999 6.24999C15.6605 6.24999 11.8845 5.95952 9.07985 5.41015C6.08978 4.82437 5.23447 4.1221 5.15822 3.90624C5.23447 3.69038 6.08978 2.98812 9.07985 2.40234ZM22.3437 34.916C21.2047 36.532 19.5383 37.7087 17.6562 38.2432V21.875H22.3437V34.916ZM34.8436 7.52483C32.4165 8.42412 29.641 9.16092 23.1033 9.33545C22.672 9.34694 22.3317 9.70592 22.3433 10.1372C22.3546 10.5615 22.702 10.8976 23.1238 10.8976C23.1308 10.8976 23.1379 10.8976 23.145 10.8973C28.3039 10.7597 31.2196 10.2764 33.4461 9.6349C31.9296 11.5751 30.56 13.1653 29.1379 14.6426C27.3331 16.5172 25.3865 18.2731 22.8504 20.3125H17.1495C12.7804 16.7991 9.90508 13.9197 6.55439 9.63506C8.78079 10.2765 11.6964 10.7597 16.8549 10.8973C16.862 10.8976 16.8691 10.8976 16.8761 10.8976C17.2979 10.8976 17.6454 10.5614 17.6566 10.1372C17.6681 9.70592 17.3279 9.34701 16.8966 9.33545C10.3588 9.16092 7.58329 8.4242 5.15619 7.52483V5.83007C5.95134 6.23741 7.05259 6.58624 8.46876 6.88077C11.4001 7.4903 15.3875 7.81249 19.9999 7.81249C24.6123 7.81249 28.5997 7.4903 31.5311 6.88077C32.9472 6.58624 34.0485 6.23749 34.8436 5.83007V7.52483Z" fill="black"/>
</svg>
