<svg width="40" height="40" viewBox="0 0 40 40" fill="none" xmlns="http://www.w3.org/2000/svg">
<g clip-path="url(#clip0_2904_1419)">
<path d="M9.82007 9.84326C9.38882 9.84326 9.03882 10.1933 9.03882 10.6245C9.03882 11.0558 9.38882 11.4058 9.82007 11.4058C10.2513 11.4058 10.6013 11.0558 10.6013 10.6245C10.6013 10.1933 10.2513 9.84326 9.82007 9.84326Z" fill="black"/>
<path d="M16.8509 24.4519H14.5073V22.1083C14.5073 21.6769 14.1575 21.327 13.7261 21.327C13.2947 21.327 12.9449 21.6769 12.9449 22.1083V24.4519H10.6013C10.1699 24.4519 9.82007 24.8017 9.82007 25.233C9.82007 25.6644 10.1699 26.0143 10.6013 26.0143H12.9449V28.3579C12.9449 28.7893 13.2948 29.1391 13.7261 29.1391C14.1574 29.1391 14.5073 28.7893 14.5073 28.3579V26.0143H16.8509C17.2823 26.0143 17.6322 25.6644 17.6322 25.233C17.6322 24.8016 17.2824 24.4519 16.8509 24.4519Z" fill="black"/>
<path d="M37.9356 25.155C36.2086 22.1639 32.3902 21.1402 29.3985 22.8676L26.2253 24.6996V17.9155C26.2253 17.0769 25.9479 16.2446 25.4441 15.572L21.5381 10.3641V8.14641C22.4473 7.82391 23.1005 6.95563 23.1005 5.93711V2.34359C23.1003 1.05133 22.049 0 20.7568 0H6.69495C5.40269 0 4.35128 1.05133 4.35128 2.34359V5.93719C4.35128 6.95555 5.00449 7.82398 5.91371 8.14648V10.3641L2.00738 15.5723C1.50378 16.2447 1.22644 17.0769 1.22644 17.9155V33.0452C1.22644 35.1991 2.97871 36.9513 5.13246 36.9513H17.6873C19.4389 39.8874 23.216 40.8701 26.1767 39.1605L35.6482 33.692C38.6135 31.9797 39.6712 28.1624 37.9356 25.155ZM5.91371 2.34359C5.91371 1.91281 6.26417 1.56234 6.69488 1.56234H20.7567C21.1875 1.56234 21.5379 1.91281 21.5379 2.34359V5.93719C21.5379 6.36797 21.1875 6.71836 20.7567 6.71836H6.69495C6.26417 6.71836 5.91378 6.36789 5.91378 5.93719V2.34359H5.91371ZM3.25769 16.5093L7.31988 11.0932C7.42128 10.958 7.47613 10.7935 7.47613 10.6245V8.28086H19.9755V9.84328H12.9446C12.5132 9.84328 12.1634 10.1931 12.1634 10.6245C12.1634 11.0559 12.5132 11.4058 12.9446 11.4058H20.3661L24.1937 16.5091C24.4439 16.843 24.5993 17.2427 24.6462 17.6555H2.8055C2.85238 17.2426 3.00777 16.843 3.25769 16.5093ZM5.13253 35.3888C3.84027 35.3888 2.78894 34.3375 2.78894 33.0452V32.2562H16.9823C16.7346 33.2691 16.7362 34.351 17.0199 35.3889H5.13253V35.3888ZM17.595 30.7016H2.78886V19.2177H24.6628V25.6016L19.9269 28.3361C18.9395 28.9065 18.1414 29.7184 17.595 30.7016ZM25.3956 37.8074C23.1536 39.102 20.2888 38.3364 18.9933 36.0929C17.6917 33.8277 18.4805 30.9759 20.7083 29.6891L24.9487 27.2408L29.636 35.3591L25.3956 37.8074ZM34.867 32.339L30.9891 34.578L26.3018 26.4595L30.1797 24.2207C32.4232 22.9255 35.287 23.6925 36.5825 25.9361C37.8836 28.1909 37.0924 31.0539 34.867 32.339Z" fill="black"/>
</g>
<defs>
<clipPath id="clip0_2904_1419">
<rect width="40" height="40" fill="white"/>
</clipPath>
</defs>
</svg>
