<svg width="40" height="40" viewBox="0 0 40 40" fill="none" xmlns="http://www.w3.org/2000/svg">
<path d="M5.46869 13.36C5.03744 13.36 4.68744 13.71 4.68744 14.1412C4.68744 14.5725 5.03744 14.9225 5.46869 14.9225C5.89994 14.9225 6.24994 14.5725 6.24994 14.1412C6.24994 13.71 5.89994 13.36 5.46869 13.36Z" fill="black"/>
<path d="M39.1709 18.6035C39.7062 18.0246 40 17.2774 40 16.485C39.9999 14.7618 38.5981 13.36 36.8749 13.36H25.3901C25.0271 11.5791 23.4489 10.235 21.5625 10.235H9.89467L6.58569 4.72068C5.69772 3.23982 3.7789 2.75982 2.29812 3.64943C0.817342 4.53779 0.338046 6.45599 1.22695 7.93692L2.60546 10.235H2.34375C1.0514 10.235 0 11.2864 0 12.5787V18.8287C0 20.9826 1.75234 22.7349 3.90624 22.7349H6.24999C6.24999 23.5429 6.24999 30.1613 6.24999 30.9678C5.31686 31.509 4.68749 32.5183 4.68749 33.6724C4.68749 35.3955 6.08936 36.7974 7.81249 36.7974C9.53561 36.7974 10.9375 35.3955 10.9375 33.6724C10.9375 33.1034 10.7839 32.5621 10.5171 32.1021H29.0142C28.7474 32.5621 28.5938 33.1034 28.5938 33.6724C28.5938 35.3955 29.9956 36.7974 31.7188 36.7974C33.4419 36.7974 34.8438 35.3955 34.8438 33.6724C34.8438 32.5183 34.2144 31.5091 33.2813 30.9678C33.2813 30.1613 33.2813 23.5429 33.2813 22.7349H37.6563C38.9486 22.7349 40 21.6835 40 20.3912C40 19.7222 39.7196 19.07 39.1709 18.6035ZM2.56671 7.13294C2.12234 6.39271 2.36148 5.43349 3.10234 4.98911C3.84234 4.54466 4.80163 4.78372 5.24577 5.5245L8.07248 10.235H4.42749L2.56671 7.13294ZM7.81249 35.2349C6.95092 35.2349 6.24999 34.534 6.24999 33.6724C6.24999 32.8109 6.95092 32.1099 7.81249 32.1099C8.67405 32.1099 9.37498 32.8108 9.37498 33.6724C9.37498 34.534 8.67405 35.2349 7.81249 35.2349ZM7.81249 30.5474V28.9849C8.83725 28.9849 29.6534 28.9849 31.7187 28.9849V30.5474H7.81249ZM7.81249 27.4224V22.7349H9.37498V27.4224H7.81249ZM10.9375 27.4224V22.7349H28.5937V27.4224H10.9375ZM30.1562 27.4224V22.7349H31.7187V27.4224H30.1562ZM31.7187 35.2349C30.8571 35.2349 30.1562 34.534 30.1562 33.6724C30.1562 32.8109 30.8571 32.1099 31.7187 32.1099C32.5802 32.1099 33.2812 32.8109 33.2812 33.6724C33.2812 34.534 32.5802 35.2349 31.7187 35.2349ZM37.6562 21.1724H3.90624C2.6139 21.1724 1.5625 20.121 1.5625 18.8287V12.5787C1.5625 12.1479 1.91297 11.7975 2.34375 11.7975C3.34257 11.7975 20.5178 11.7975 21.5625 11.7975C22.8548 11.7975 23.9062 12.8489 23.9062 14.1412V18.8287C23.9062 19.2601 24.256 19.6099 24.6875 19.6099C26.0678 19.6099 35.582 19.6099 37.6562 19.6099C38.0876 19.6099 38.4374 19.9599 38.4374 20.3912C38.4374 20.8219 38.087 21.1724 37.6562 21.1724ZM37.9795 17.5896C37.6842 17.8848 37.292 18.0475 36.8749 18.0475H25.4687V14.9225H36.8749C37.7365 14.9225 38.4374 15.6233 38.4374 16.485C38.4374 16.902 38.2748 17.2942 37.9795 17.5896Z" fill="black"/>
<path d="M19.9999 13.36H8.59369C8.1622 13.36 7.81244 13.7098 7.81244 14.1412C7.81244 14.5726 8.1622 14.9225 8.59369 14.9225H19.9999C20.4314 14.9225 20.7812 14.5726 20.7812 14.1412C20.7812 13.7098 20.4314 13.36 19.9999 13.36Z" fill="black"/>
</svg>
