<svg width="40" height="40" viewBox="0 0 40 40" fill="none" xmlns="http://www.w3.org/2000/svg">
<g clip-path="url(#clip0_2904_1450)">
<path d="M30.8865 9.1135C30.5811 8.80803 30.0865 8.80803 29.7818 9.1135C29.4764 9.41897 29.4764 9.9135 29.7818 10.2182C30.0865 10.5236 30.5811 10.5236 30.8865 10.2182C31.192 9.9135 31.192 9.41897 30.8865 9.1135Z" fill="black"/>
<path d="M10.2181 29.7818C9.91344 29.4764 9.41813 29.4764 9.11344 29.7818C8.80797 30.0865 8.80797 30.5818 9.11344 30.8865C9.41813 31.1919 9.91344 31.1919 10.2181 30.8865C10.5236 30.5818 10.5236 30.0865 10.2181 29.7818Z" fill="black"/>
<path d="M38.8541 12.1942L27.806 1.14623C26.2795 -0.381269 23.8089 -0.381503 22.2815 1.14599L1.14502 22.2824C-0.381698 23.8092 -0.382949 26.2797 1.14502 27.8066L12.1931 38.8546C12.1931 38.8546 12.1931 38.8546 12.1933 38.8548C13.7196 40.3821 16.1901 40.3823 17.7176 38.8548L38.854 17.7185C40.3807 16.1917 40.382 13.7211 38.8541 12.1942ZM37.7492 16.6136L16.6128 37.7501C15.6967 38.6662 14.2148 38.6673 13.2984 37.7503C13.2984 37.7502 13.2983 37.7501 13.2982 37.7501L2.24978 26.7016C1.33338 25.7859 1.33314 24.3038 2.24994 23.3873L23.3862 2.25084C24.3026 1.33443 25.7844 1.33373 26.7008 2.25084L37.7492 13.2993C38.6658 14.215 38.666 15.6971 37.7492 16.6136Z" fill="black"/>
<path d="M34.7536 12.9803C33.535 11.762 31.5525 11.7619 30.3342 12.9802C29.1128 14.2007 29.1119 16.1782 30.334 17.3992C31.5557 18.621 33.532 18.621 34.7536 17.3992V17.3992C35.9745 16.1784 35.9746 14.2014 34.7536 12.9803ZM33.6489 16.2944C33.038 16.9053 32.0502 16.9058 31.4386 16.2942C30.8282 15.6842 30.8277 14.6959 31.4389 14.0853C32.0482 13.4759 33.0396 13.476 33.6489 14.0853C34.259 14.6954 34.259 15.6842 33.6489 16.2944Z" fill="black"/>
<path d="M28.9953 18.739C27.7768 17.5205 25.7943 17.5204 24.576 18.7387C23.3543 19.9594 23.3537 21.9366 24.576 23.1589C25.7943 24.3762 27.7767 24.3762 28.9951 23.1589C28.9953 23.1587 28.9954 23.1586 28.9956 23.1583C30.2134 21.9393 30.2133 19.9569 28.9953 18.739ZM27.8905 22.0538C27.2811 22.6627 26.2896 22.6625 25.6806 22.0538C25.0699 21.4432 25.0693 20.4546 25.6806 19.8438C26.29 19.2344 27.2812 19.2345 27.8905 19.8438C28.4994 20.4527 28.4994 21.4441 27.8905 22.0538Z" fill="black"/>
<path d="M23.1586 24.5756C21.9375 23.3546 19.9602 23.3534 18.739 24.5756C17.5205 25.7942 17.5205 27.7768 18.739 28.9953C19.9572 30.2134 21.9395 30.2132 23.1583 28.9955C23.1585 28.9954 23.1586 28.9952 23.1588 28.995C24.3761 27.7766 24.3761 25.7942 23.1586 24.5756ZM22.0536 27.8907C21.4439 28.4993 20.4527 28.4994 19.8439 27.8904C19.2346 27.2811 19.2346 26.2897 19.8441 25.6802C20.4533 25.0705 21.4418 25.0685 22.0536 25.6801C22.6625 26.2897 22.6625 27.2813 22.0536 27.8907Z" fill="black"/>
<path d="M17.3995 30.3343C16.1789 29.1127 14.2015 29.1121 12.9804 30.3341C11.762 31.5527 11.762 33.5353 12.9804 34.7538C14.1987 35.972 16.1809 35.9721 17.3993 34.7538C17.3993 34.7538 17.3993 34.7538 17.3993 34.7537C18.6178 33.5352 18.6177 31.5526 17.3995 30.3343ZM16.2945 33.6489C15.6854 34.2579 14.6944 34.2579 14.0853 33.6489C13.476 33.0396 13.476 32.0482 14.0856 31.4386C14.6957 30.828 15.6838 30.8278 16.2945 31.4388C16.9038 32.0482 16.9038 33.0397 16.2945 33.6489Z" fill="black"/>
<path d="M27.0194 5.24613C25.801 4.02793 23.8189 4.02769 22.6005 5.2462C21.3821 6.46472 21.3821 8.44729 22.6003 9.66557C23.8213 10.8875 25.7986 10.8875 27.0196 9.66557C28.2378 8.44706 28.2378 6.46456 27.0194 5.24613ZM25.9145 8.56104C25.9144 8.56112 25.9143 8.5612 25.9142 8.56128C25.3041 9.1719 24.316 9.17214 23.7053 8.56112C23.096 7.95175 23.096 6.96026 23.7053 6.35105C24.3145 5.74191 25.3053 5.74191 25.9145 6.35105C26.5238 6.96034 26.5238 7.95175 25.9145 8.56104Z" fill="black"/>
<path d="M21.2608 11.0047C20.0428 9.78671 18.0603 9.78656 16.841 11.005C15.6238 12.2234 15.6238 14.2058 16.8413 15.4244C18.0627 16.6458 20.0398 16.6463 21.2611 15.4241C22.4793 14.2056 22.4792 12.2231 21.2608 11.0047ZM20.156 14.3195C20.1559 14.3196 20.1559 14.3197 20.1558 14.3198C19.5466 14.9294 18.558 14.9314 17.9463 14.3198C17.3373 13.7104 17.3373 12.7187 17.9458 12.1098C18.5549 11.5012 19.5466 11.4999 20.156 12.1095C20.7653 12.7188 20.7653 13.7102 20.156 14.3195Z" fill="black"/>
<path d="M15.424 16.8411C14.2055 15.6237 12.2232 15.6236 11.0044 16.8416C9.78655 18.0606 9.78663 20.043 11.0046 21.261C12.223 22.4792 14.2054 22.4797 15.424 21.2612C16.6457 20.0406 16.6462 18.0633 15.424 16.8411ZM14.3197 20.1559C14.3196 20.156 14.3195 20.1561 14.3194 20.1561C13.7101 20.7654 12.7188 20.7654 12.1095 20.1561C11.5004 19.5472 11.5005 18.5556 12.1092 17.9464C12.7183 17.3378 13.7101 17.3372 14.3194 17.9461C14.9298 18.5565 14.931 19.5451 14.3197 20.1559Z" fill="black"/>
<path d="M9.66605 22.6008C8.44441 21.3789 6.46817 21.3788 5.24645 22.6006C4.02559 23.8215 4.02544 25.7984 5.24645 27.0195C6.46481 28.2377 8.44723 28.2382 9.66582 27.0198C10.8873 25.7994 10.8882 23.8217 9.66605 22.6008ZM8.56144 25.9144C8.56137 25.9145 8.56129 25.9146 8.56121 25.9147C7.95191 26.524 6.96051 26.524 6.35121 25.9147C5.74106 25.3046 5.7409 24.3158 6.35121 23.7055C6.96207 23.0946 7.94988 23.0941 8.56144 23.7058C9.17207 24.3159 9.17207 25.3042 8.56144 25.9144Z" fill="black"/>
<path d="M28.6765 11.3234C28.3715 11.0186 27.8767 11.0184 27.5716 11.3234L11.3228 27.5716C11.0177 27.8767 11.0176 28.3714 11.3228 28.6765C11.6279 28.9816 12.1225 28.9816 12.4276 28.6765L28.6765 12.4283C28.9816 12.1233 28.9816 11.6286 28.6765 11.3234Z" fill="black"/>
</g>
<defs>
<clipPath id="clip0_2904_1450">
<rect width="40" height="40" fill="white"/>
</clipPath>
</defs>
</svg>
