<svg id="dna" width="40" height="40" viewBox="0 0 40 40" fill="none" xmlns="http://www.w3.org/2000/svg">
<path d="M26.248 35.0781C25.8167 35.0781 25.4667 35.4281 25.4667 35.8594C25.4667 36.2906 25.8167 36.6406 26.248 36.6406C26.6792 36.6406 27.0292 36.2906 27.0292 35.8594C27.0292 35.4281 26.6792 35.0781 26.248 35.0781Z" fill="#24BEE0"/>
<path d="M13.748 3.35938C13.3167 3.35938 12.9667 3.70937 12.9667 4.14062C12.9667 4.57187 13.3167 4.92188 13.748 4.92188C14.1792 4.92188 14.5292 4.57187 14.5292 4.14062C14.5292 3.70937 14.1792 3.35938 13.748 3.35938Z" fill="#24BEE0"/>
<path d="M34.8856 39.0923C34.4056 36.1809 33.7874 33.6561 32.7442 30.849C30.9042 25.8973 28.4414 22.2559 25.4141 20.0045C30.8683 15.9598 33.8073 7.60508 34.8177 0.896172C34.8886 0.425547 34.5166 0.00664063 34.0458 0.00632813C32.9556 0.00546875 31.7828 0.00398437 30.8856 0.0015625C30.8849 0.0015625 30.8842 0.0015625 30.8835 0.0015625C30.5016 0.0015625 30.1756 0.269922 30.1129 0.646797C30.0372 1.10188 29.859 2.08469 29.547 3.35938H16.6264C16.195 3.35938 15.8452 3.70922 15.8452 4.14062C15.8452 4.57203 16.195 4.91406 16.6264 4.91406H29.1328C28.8342 5.9582 28.4606 7.11406 28.0012 8.28125H11.9564C10.5949 4.855 9.97916 1.60172 9.81783 0.650547C9.754 0.274922 9.42853 0 9.04751 0H5.8858C5.40931 0 5.04408 0.423359 5.11267 0.893906C6.05384 7.35836 9.16525 15.9337 14.5882 19.9912C9.09986 24.057 6.24212 32.3212 5.17947 39.1094C5.11283 39.5809 5.47962 40 5.95298 40H9.11314C9.49501 40 9.82087 39.724 9.88369 39.3473C9.95962 38.8927 10.1379 37.912 10.4492 36.6406H23.3702C23.8016 36.6406 24.1514 36.2908 24.1514 35.8594C24.1514 35.428 23.8016 35.0781 23.3702 35.0781H10.8635C11.1621 34.0337 11.5357 32.8854 11.9949 31.7188H28.0711C29.0342 34.1238 29.7213 36.5613 30.1509 39.1807C30.1624 39.2506 30.1721 39.3102 30.1804 39.3584C30.2439 39.7345 30.5696 39.9859 30.9506 39.9859C30.9519 39.9859 30.9531 39.9859 30.9545 39.9859C31.9231 39.9812 33.1589 39.9867 34.116 39.9852C34.596 39.9844 34.9642 39.5691 34.8856 39.0923ZM31.5374 1.55773C32.0359 1.55867 32.582 1.55945 33.1322 1.56008C32.075 7.69 29.1958 15.5977 24.0112 19.0842C23.4637 18.771 22.899 18.4999 22.3203 18.2722C27.6309 15.3258 30.4131 7.50633 31.5374 1.55773ZM19.9956 17.575C18.3894 17.0867 16.9045 16.0655 15.5658 14.5312H24.4127C23.0795 16.0636 21.599 17.0847 19.9956 17.575ZM27.3354 9.83594C26.8013 10.9937 26.2211 12.0478 25.6024 12.9688H14.3716C13.7496 12.0476 13.1658 10.9935 12.6278 9.83594H27.3354ZM8.45853 38.4375H6.86494C7.92205 32.3096 10.8013 24.3998 15.9883 20.9138C16.535 21.2276 17.0992 21.4992 17.6776 21.7273C12.365 24.6737 9.56822 32.5256 8.45853 38.4375ZM20.0015 22.4252C21.6111 22.9139 23.1005 23.9348 24.4447 25.4688H15.5842C16.9173 23.9365 18.398 22.9155 20.0015 22.4252ZM12.661 30.1562C13.1954 28.9981 13.7758 27.9519 14.3942 27.0312H25.6441C26.2679 27.9511 26.8545 28.9974 27.3957 30.1562H12.661ZM31.612 38.4442C30.4398 31.628 26.7443 22.3676 19.8246 20.762C12.1452 18.9999 8.19548 9.28922 6.8022 1.5625H8.39556C9.70673 8.38078 13.1176 17.3145 19.7896 19.1418C19.7952 19.1434 19.801 19.1448 19.8067 19.1463C20.3864 19.3054 21.8077 19.5396 23.621 20.6709C27.5731 23.1345 29.9672 27.8616 31.2796 31.3933C32.4126 34.442 32.9783 37.2037 33.1968 38.44C32.6751 38.4411 32.1262 38.4423 31.612 38.4442Z" fill="#24BEE0"/>
</svg>
