<svg width="40" height="40" viewBox="0 0 40 40" fill="none" xmlns="http://www.w3.org/2000/svg">
<path d="M20 11.875C19.5687 11.875 19.2188 12.225 19.2188 12.6562C19.2188 13.0875 19.5687 13.4375 20 13.4375C20.4312 13.4375 20.7812 13.0875 20.7812 12.6562C20.7812 12.225 20.4312 11.875 20 11.875Z" fill="black"/>
<path d="M23.5156 18.2655C21.7395 18.2655 20.6383 19.3157 20 20.2857C19.3617 19.3157 18.2605 18.2655 16.4844 18.2655C13.9695 18.2655 12.1875 20.3603 12.1875 22.8632C12.1875 26.1329 15.1988 28.1076 19.4884 31.8247C19.6352 31.9519 19.8176 32.0155 20 32.0155C20.1824 32.0155 20.3649 31.9519 20.5117 31.8247C24.8077 28.101 27.8125 26.1307 27.8125 22.8632C27.8125 20.3575 26.0281 18.2655 23.5156 18.2655ZM19.9999 30.2032C16.2049 26.9524 13.75 25.2193 13.75 22.8632C13.75 21.1329 14.9255 19.8281 16.4844 19.8281C18.5191 19.8281 19.2191 22.2037 19.2478 22.3049C19.3424 22.6418 19.6498 22.875 20 22.875C20.3512 22.875 20.6591 22.6407 20.753 22.3022C20.7598 22.2775 21.4618 19.8281 23.5156 19.8281C25.0745 19.8281 26.25 21.1329 26.25 22.8633C26.25 25.2156 23.8162 26.9344 19.9999 30.2032Z" fill="black"/>
<path d="M32.0164 14.3879L33.0871 13.2857C33.9998 12.3692 33.9979 10.89 33.0828 9.97492C32.167 9.05906 30.6846 9.05891 29.7686 9.97492C29.7662 9.97734 29.7638 9.97984 29.7614 9.98227L28.5067 11.2702C26.8697 10.2069 25.032 9.45391 23.1249 9.06516V6.71875H25.4687C25.9001 6.71875 26.2499 6.36891 26.2499 5.9375V0.78125C26.2499 0.349844 25.9001 0 25.4687 0H14.5312C14.0998 0 13.75 0.349844 13.75 0.78125V5.9375C13.75 6.36891 14.0998 6.71875 14.5312 6.71875H16.875V9.06344C9.67484 10.5279 4.375 16.8861 4.375 24.375C4.375 32.9906 11.3844 40 20 40C28.6156 40 35.625 32.9906 35.625 24.375C35.625 20.7084 34.3486 17.1904 32.0164 14.3879ZM30.8765 11.0767C31.1812 10.7753 31.6746 10.7762 31.978 11.0798C32.2624 11.3642 32.3078 11.846 31.97 12.1931L30.9569 13.236C30.5844 12.8695 30.193 12.5224 29.7865 12.1956L30.8765 11.0767ZM15.3125 5.15625V1.5625H24.6875V5.15625H15.3125ZM21.5625 6.71875V8.82797C20.5263 8.72539 19.4738 8.72539 18.4375 8.82797V6.71875H21.5625ZM20 38.4375C12.2459 38.4375 5.9375 32.1291 5.9375 24.375C5.9375 16.5068 12.2475 10.3125 20 10.3125C27.7055 10.3125 34.0625 16.5477 34.0625 24.375C34.0625 32.1291 27.7541 38.4375 20 38.4375Z" fill="black"/>
<path d="M23.3043 12.3185C22.8883 12.2042 22.4584 12.4492 22.3443 12.8653C22.2302 13.2814 22.475 13.7112 22.8911 13.8253C27.6287 15.1244 30.9375 19.4625 30.9375 24.375C30.9375 30.4059 26.0309 35.3125 20 35.3125C13.9691 35.3125 9.0625 30.4059 9.0625 24.375C9.0625 23.9436 8.71273 23.5937 8.28125 23.5937C7.84977 23.5937 7.5 23.9436 7.5 24.375C7.5 31.2675 13.1075 36.875 20 36.875C26.8926 36.875 32.5 31.2675 32.5 24.375C32.5 18.7609 28.7186 13.8031 23.3043 12.3185Z" fill="black"/>
</svg>
