<svg width="40" height="40" viewBox="0 0 40 40" fill="none" xmlns="http://www.w3.org/2000/svg">
<g clip-path="url(#clip0_2904_1439)">
<path d="M22.3438 29.8438C21.9125 29.8438 21.5625 30.1937 21.5625 30.625C21.5625 31.0562 21.9125 31.4062 22.3438 31.4062C22.775 31.4062 23.125 31.0562 23.125 30.625C23.125 30.1937 22.775 29.8438 22.3438 29.8438Z" fill="black"/>
<path d="M33.3235 32.97L32.6832 31.0492C34.5837 29.0163 35.6249 26.388 35.6249 23.5939C35.6249 18.6733 32.3389 14.3714 27.7177 13.0266L29.6327 9.70953C29.8484 9.33586 29.7204 8.85812 29.3467 8.64234L28.6701 8.25172L29.4514 6.8986L30.1279 7.28922C30.5008 7.50446 30.9789 7.37781 31.1951 7.00328L32.7576 4.29704C32.9732 3.9236 32.8452 3.44556 32.4717 3.22985L27.0592 0.10486C26.6857 -0.110765 26.2077 0.0172037 25.992 0.390797L24.4295 3.09704C24.2139 3.47048 24.3419 3.94852 24.7155 4.16423L25.392 4.55485L24.6108 5.90797L23.9342 5.51735C23.5608 5.30173 23.0826 5.42969 22.867 5.80329L17.0077 15.9524L16.3311 15.5618C15.9578 15.3461 15.4796 15.4741 15.2639 15.8477L13.7014 18.554C13.4856 18.9277 13.6137 19.4054 13.9873 19.6212L22.1061 24.3087C22.4772 24.5231 22.9562 24.3986 23.1733 24.0228L24.7358 21.3165C24.9515 20.9428 24.8235 20.4651 24.4498 20.2493L23.7733 19.8587L24.3502 18.8594C27.0741 18.6641 29.3749 20.8516 29.3749 23.5939C29.3749 24.43 29.1593 25.2282 28.7483 25.9363C27.7342 25.4244 26.6142 25.1564 25.4687 25.1564C23.8323 25.1564 22.2437 25.7095 20.9614 26.7189H13.3374C11.8486 26.7189 10.5098 27.5462 9.84321 28.8783L9.14477 30.276C9.02376 30.5182 9.03673 30.8057 9.17907 31.036C9.32141 31.2663 9.5729 31.4064 9.8436 31.4064H18.1349L17.6141 32.9689H6.71868V32.9689C5.42634 32.9689 4.37494 34.0203 4.37494 35.3126V39.2188C4.37494 39.6503 4.7247 40.0001 5.15619 40.0001H34.8436C35.2751 40.0001 35.6249 39.6503 35.6249 39.2188V35.3126C35.6249 34.0345 34.5963 32.9927 33.3235 32.97ZM26.9546 1.84861L31.014 4.19235L30.2327 5.5454C29.329 5.02368 27.2276 3.81032 26.1733 3.20165L26.9546 1.84861ZM26.7453 5.3361L28.0983 6.11735L27.3171 7.47047L25.964 6.68922L26.7453 5.3361ZM22.2108 22.565L15.4452 18.6587L16.2265 17.3056C16.9446 17.7202 21.366 20.273 22.3153 20.8211C22.3154 20.8212 22.3155 20.8212 22.3156 20.8213C22.3157 20.8213 22.3158 20.8214 22.3158 20.8214L22.9921 21.2118L22.2108 22.565ZM22.4201 19.0774L18.3608 16.7337L23.8296 7.2611C25.4195 8.17906 26.3523 8.71766 26.8686 9.0157C26.7505 8.9475 26.658 8.89414 26.6473 8.88797C26.6669 8.8993 26.9722 9.07555 27.889 9.60484C27.0815 11.0034 23.1045 17.892 22.4201 19.0774ZM25.2443 17.3109L26.9096 14.4264C31.0855 15.4426 34.0624 19.2136 34.0624 23.5939C34.0624 25.7144 33.3622 27.7237 32.0704 29.3662C31.6044 28.3682 30.9153 27.4843 30.0608 26.7886C30.6362 25.8265 30.9374 24.7365 30.9374 23.5939C30.9374 20.3044 28.4305 17.5964 25.2443 17.3109ZM25.4687 26.7189C27.9604 26.7189 30.1275 28.3234 30.8969 30.6311L31.6761 32.9689H19.2612L20.0403 30.6315C20.826 28.2748 23.0303 26.7189 25.4687 26.7189ZM11.1075 29.8439C11.1616 29.7806 11.659 28.2736 13.3375 28.2736H19.4898C19.1529 28.7578 18.8751 29.2908 18.6638 29.8439H11.1075ZM34.0624 38.4376H5.93744V35.3126C5.93744 34.8818 6.2879 34.5314 6.71868 34.5314C7.36165 34.5314 31.9528 34.5314 33.2811 34.5314C33.712 34.5314 34.0624 34.8818 34.0624 35.3126V38.4376Z" fill="black"/>
<path d="M26.9638 9.07056C27.011 9.09782 27.0543 9.12274 27.0933 9.14532C27.0503 9.12048 27.0065 9.09517 26.9638 9.07056Z" fill="black"/>
<path d="M26.9585 9.06763C26.9602 9.06864 26.9619 9.06958 26.9637 9.07059C26.9619 9.06958 26.9602 9.06864 26.9585 9.06763Z" fill="black"/>
<path d="M26.8685 9.01562C26.871 9.01711 26.8736 9.01852 26.8761 9.02C26.8736 9.01852 26.871 9.01703 26.8685 9.01562Z" fill="black"/>
<path d="M26.8762 9.02002C26.9049 9.03658 26.9325 9.05252 26.9586 9.0676C26.9304 9.05127 26.9027 9.03525 26.8762 9.02002Z" fill="black"/>
<path d="M27.0933 9.14539C27.1006 9.1496 27.1079 9.15375 27.115 9.15789C27.1078 9.15375 27.1008 9.14968 27.0933 9.14539Z" fill="black"/>
<path d="M27.4175 9.33264C27.4201 9.3342 27.4224 9.33553 27.4243 9.33655C27.4225 9.33553 27.4202 9.3342 27.4175 9.33264Z" fill="black"/>
<path d="M27.3979 9.32129C27.4062 9.32605 27.4126 9.3298 27.4176 9.33262C27.4125 9.32965 27.406 9.3259 27.3979 9.32129Z" fill="black"/>
<path d="M27.4244 9.33655C27.4313 9.34061 27.4318 9.34084 27.4244 9.33655V9.33655Z" fill="black"/>
<path d="M27.2886 9.25818C27.2944 9.26154 27.3001 9.26482 27.3055 9.26794C27.3 9.26474 27.2944 9.26146 27.2886 9.25818Z" fill="black"/>
<path d="M27.3054 9.26782C27.344 9.29009 27.376 9.3086 27.3979 9.32126C27.3778 9.30962 27.3475 9.2922 27.3054 9.26782Z" fill="black"/>
<path d="M27.2632 9.24353C27.2719 9.24853 27.2804 9.25337 27.2886 9.25814C27.2805 9.25345 27.2721 9.24861 27.2632 9.24353Z" fill="black"/>
<path d="M27.1149 9.15784C27.1734 9.19159 27.2226 9.21995 27.2633 9.24346C27.2184 9.2176 27.1677 9.18831 27.1149 9.15784Z" fill="black"/>
<path d="M28.5937 29.8438H25.4687C25.0372 29.8438 24.6874 30.1936 24.6874 30.625C24.6874 31.0564 25.0372 31.4062 25.4687 31.4062H28.5937C29.0252 31.4062 29.3749 31.0564 29.3749 30.625C29.3749 30.1936 29.0252 29.8438 28.5937 29.8438Z" fill="black"/>
</g>
<defs>
<clipPath id="clip0_2904_1439">
<rect width="40" height="40" fill="white"/>
</clipPath>
</defs>
</svg>
