<svg width="40" height="40" viewBox="0 0 40 40" fill="none" xmlns="http://www.w3.org/2000/svg">
<path d="M8.28138 14.5311C7.85012 14.5311 7.50012 14.8811 7.50012 15.3124C7.50012 15.7436 7.85012 16.0936 8.28138 16.0936C8.71263 16.0936 9.06263 15.7436 9.06263 15.3124C9.06263 14.8811 8.71263 14.5311 8.28138 14.5311Z" fill="black"/>
<path d="M27.0311 16.0936H23.1249V12.1874C23.1249 11.756 22.775 11.4061 22.3436 11.4061H17.6561C17.2247 11.4061 16.8748 11.756 16.8748 12.1874V16.0936H12.9686C12.5372 16.0936 12.1873 16.4435 12.1873 16.8749V21.5624C12.1873 21.9938 12.5372 22.3437 12.9686 22.3437H16.8748V26.2499C16.8748 26.6813 17.2247 27.0312 17.6561 27.0312H22.3436C22.775 27.0312 23.1249 26.6813 23.1249 26.2499V22.3437H27.0311C27.4625 22.3437 27.8124 21.9938 27.8124 21.5624V16.8749C27.8124 16.4435 27.4625 16.0936 27.0311 16.0936ZM26.2499 20.7812H22.3436C21.9122 20.7812 21.5624 21.131 21.5624 21.5624V25.4687H18.4373V21.5624C18.4373 21.131 18.0875 20.7812 17.6561 20.7812H13.7498V17.6562H17.6561C18.0875 17.6562 18.4373 17.3063 18.4373 16.8749V12.9686H21.5624V16.8749C21.5624 17.3063 21.9122 17.6562 22.3436 17.6562H26.2499V20.7812Z" fill="black"/>
<path d="M32.0607 2.40165C30.7959 3.2229 29.3269 3.65689 27.8127 3.65689C25.4969 3.65689 23.314 2.6379 21.8237 0.861097C21.8236 0.861097 21.8236 0.861097 21.8236 0.861097C21.3647 0.313907 20.7 0 20.0001 0C19.3003 0 18.6356 0.313907 18.1765 0.861019C16.6863 2.63782 14.5033 3.65681 12.1876 3.65681C10.6734 3.65681 9.20438 3.22275 7.93953 2.40157C6.39476 1.39899 4.37506 2.57939 4.37506 4.399V20.3343C4.37506 23.8789 5.5121 27.3421 7.57648 30.0859C12.6835 36.8765 19.4083 39.8148 19.6921 39.9366C19.7904 39.9788 19.8954 40 20.0001 40C20.1049 40 20.2099 39.9788 20.3082 39.9366C20.5919 39.8148 27.3167 36.8766 32.4237 30.0868C34.4882 27.3421 35.6252 23.8786 35.6252 20.3343V4.39908C35.6252 2.57931 33.605 1.39899 32.0607 2.40165ZM31.175 29.1475C26.928 34.794 21.3575 37.7049 19.9997 38.358C18.6413 37.7065 13.0816 34.8064 8.82516 29.1467C6.96304 26.6719 5.93757 23.5424 5.93757 20.3344V4.39908C5.93757 3.80431 6.5939 3.39111 7.08867 3.7122C8.6075 4.69822 10.3707 5.2194 12.1876 5.2194C14.9665 5.2194 17.5858 3.99689 19.3736 1.86524C19.5374 1.67001 19.7598 1.56251 20.0001 1.56251C20.2404 1.56251 20.4629 1.67001 20.6265 1.86524C22.4145 3.99681 25.0337 5.2194 27.8127 5.2194C29.6295 5.2194 31.3927 4.69822 32.9116 3.7122C33.3983 3.39603 34.0627 3.79533 34.0627 4.39908V20.3343C34.0627 23.542 33.0372 26.6719 31.175 29.1475Z" fill="black"/>
<path d="M32.1697 6.25164C31.9623 6.10523 31.6969 6.06867 31.4577 6.15343C30.2823 6.57046 29.0559 6.78187 27.8127 6.78187C25.1273 6.78187 22.5375 5.79054 20.5203 3.99045C20.224 3.726 19.7763 3.726 19.48 3.99045C17.4629 5.79054 14.873 6.78187 12.1876 6.78187C10.9444 6.78187 9.71802 6.57046 8.54263 6.15343C8.30325 6.06867 8.03802 6.10523 7.83067 6.25164C7.62348 6.39804 7.5002 6.63601 7.5002 6.88976V12.1874C7.5002 12.6188 7.85005 12.9687 8.28145 12.9687C8.71286 12.9687 9.06271 12.6188 9.06271 12.1874V7.94578C10.0829 8.21063 11.1299 8.34446 12.1877 8.34446C15.0311 8.34446 17.7795 7.37312 20.0002 5.59593C22.221 7.37312 24.9694 8.34446 27.8128 8.34446C28.8706 8.34446 29.9176 8.21063 30.9378 7.94578V20.3343C30.9378 22.8696 30.1352 25.3316 28.6773 27.2672C25.7232 31.1966 22.115 33.6296 20.0076 34.8275C17.8835 33.6139 14.2522 31.1624 11.3229 27.2684C9.86537 25.3316 9.06263 22.869 9.06263 20.3343V18.4374C9.06263 18.006 8.71278 17.6561 8.28138 17.6561C7.84997 17.6561 7.50012 18.006 7.50012 18.4374V20.3343C7.50012 23.2058 8.41434 26.0021 10.0743 28.2078C13.3595 32.5752 17.4713 35.2196 19.6298 36.4071C19.747 36.4716 19.8767 36.5039 20.0063 36.5039C20.1353 36.5039 20.2643 36.472 20.381 36.4082C22.5229 35.2375 26.6111 32.6153 29.9258 28.2066C31.5858 26.0023 32.5001 23.2065 32.5001 20.3343V6.88968C32.5001 6.63593 32.3769 6.39804 32.1697 6.25164Z" fill="black"/>
</svg>
