<svg width="40" height="40" viewBox="0 0 40 40" fill="none" xmlns="http://www.w3.org/2000/svg">
<g clip-path="url(#clip0_2904_1459)">
<path d="M15.0281 22.7625C14.7234 22.4571 14.2281 22.4571 13.9234 22.7625C13.6179 23.0672 13.6179 23.5618 13.9234 23.8672C14.2281 24.1719 14.7234 24.1719 15.0281 23.8672C15.3335 23.5618 15.3335 23.0672 15.0281 22.7625Z" fill="black"/>
<path d="M39.3129 5.10639L34.8927 0.686387C33.988 -0.216269 32.5092 -0.240801 31.5792 0.687011C30.6633 1.60295 30.6632 3.08514 31.5792 4.00123L32.1316 4.55357L28.3809 8.30482C28.1249 8.04881 25.8685 5.79248 25.6185 5.5424C25.3134 5.23748 24.8188 5.2374 24.5137 5.5424C24.2086 5.84748 24.2085 6.34217 24.5137 6.64732L25.066 7.19959C24.7867 7.47873 11.7725 20.4938 10.7881 21.4783C9.47095 22.7954 8.96673 24.6059 9.27228 26.309L7.84673 27.7345C6.93306 28.6483 6.93306 30.1348 7.84666 31.0486L0.228687 38.6664C-0.0763916 38.9715 -0.0763916 39.4662 0.228687 39.7713C0.533843 40.0764 1.02845 40.0764 1.33361 39.7713L8.95142 32.1535C9.86509 33.0671 11.3518 33.0672 12.2656 32.1534L13.6913 30.7276C15.4679 31.0448 17.2732 30.4606 18.5217 29.212C21.6111 26.1228 29.6588 18.0754 32.8004 14.934L33.3527 15.4863C33.6578 15.7914 34.1524 15.7914 34.4575 15.4863C34.7626 15.1812 34.7627 14.6865 34.4575 14.3814C34.2074 14.1313 31.9534 11.8772 31.6951 11.619L35.4464 7.86834L35.998 8.4199C36.9137 9.33803 38.3999 9.33615 39.313 8.42068C40.2288 7.50482 40.229 6.02256 39.3129 5.10639ZM11.1607 31.0484C10.8562 31.3529 10.3606 31.3529 10.0562 31.0484C8.7097 29.7019 9.03728 30.0294 8.9515 29.9436C8.64689 29.6393 8.64689 29.1438 8.95142 28.8393L9.84494 27.9458C10.0812 28.3822 10.3772 28.7846 10.721 29.1407C11.1099 29.5436 11.5601 29.8875 12.0542 30.1549L11.1607 31.0484ZM21.1045 24.4197L20.5522 23.8673C20.2471 23.5623 19.7524 23.5623 19.4474 23.8673C19.1423 24.1724 19.1423 24.6671 19.4474 24.9722L19.9996 25.5245L18.8949 26.6291L17.2372 24.9718C16.9321 24.6669 16.4374 24.6669 16.1324 24.972C15.8273 25.2772 15.8274 25.7718 16.1325 26.0769L17.79 27.7339L17.4167 28.1071C15.8801 29.6439 13.3595 29.6371 11.8351 28.0471C10.3888 26.5386 10.3638 24.112 11.8929 22.5831L16.685 17.7904L22.2095 23.3147L21.1045 24.4197ZM31.6955 13.8291L29.9435 15.581L28.2856 13.9236C27.9805 13.6186 27.4858 13.6186 27.1807 13.9237C26.8756 14.2289 26.8758 14.7236 27.1809 15.0286L28.8386 16.6858L27.7334 17.791L27.1809 17.2385C26.8757 16.9336 26.3811 16.9335 26.076 17.2385C25.771 17.5436 25.7709 18.0383 26.076 18.3434L26.6285 18.8959L25.5239 20.0004L23.8668 18.3433C23.5617 18.0383 23.067 18.0383 22.762 18.3433C22.4569 18.6483 22.4569 19.143 22.762 19.4482L24.419 21.1052L23.3141 22.2101L17.7896 16.6857L26.1707 8.30459L31.6955 13.8291ZM30.5903 10.5142L29.4856 9.40959L33.2363 5.65834L34.3416 6.76357L30.5903 10.5142ZM38.2074 7.31646C37.9077 7.61678 37.4125 7.62545 37.1036 7.31568C36.7285 6.94053 33.2789 3.49099 32.6841 2.89615C32.3778 2.58998 32.3799 2.096 32.6833 1.79248C32.9918 1.48467 33.4837 1.48764 33.7885 1.79178L38.2081 6.21123C38.5116 6.51474 38.5153 7.00842 38.2074 7.31646Z" fill="black"/>
</g>
<defs>
<clipPath id="clip0_2904_1459">
<rect width="40" height="40" fill="white"/>
</clipPath>
</defs>
</svg>
