<svg width="40" height="40" viewBox="0 0 40 40" fill="none" xmlns="http://www.w3.org/2000/svg">
<g clip-path="url(#clip0_2904_1432)">
<path d="M10.1562 6.25C9.725 6.25 9.375 6.6 9.375 7.03125C9.375 7.4625 9.725 7.8125 10.1562 7.8125C10.5875 7.8125 10.9375 7.4625 10.9375 7.03125C10.9375 6.6 10.5875 6.25 10.1562 6.25Z" fill="black"/>
<path d="M20 0C9.21773 0 0 9.2043 0 20C0 30.782 9.2043 40 20 40C30.7823 40 40 30.7957 40 20C40 9.21797 30.7957 0 20 0ZM20 38.4375C10.0059 38.4375 1.5625 29.9941 1.5625 20C1.5625 10.0059 10.0059 1.5625 20 1.5625C29.9941 1.5625 38.4375 10.0059 38.4375 20C38.4375 29.9941 29.9941 38.4375 20 38.4375Z" fill="black"/>
<path d="M20 3.125C17.3844 3.125 14.5787 3.71828 12.495 4.71195C12.1055 4.89773 11.9404 5.36398 12.1262 5.75344C12.3119 6.14281 12.7781 6.30781 13.1677 6.12234C15.0234 5.23727 17.6414 4.6875 20 4.6875C28.1571 4.6875 35.3125 11.8429 35.3125 20C35.3125 28.1571 28.1571 35.3125 20 35.3125C11.8429 35.3125 4.6875 28.1571 4.6875 20C4.6875 16.2316 6.12766 12.2736 8.44594 9.67031C8.73289 9.34812 8.7043 8.8543 8.38211 8.56734C8.05992 8.28039 7.56609 8.30891 7.27914 8.63117C4.67789 11.552 3.125 15.8021 3.125 20C3.125 29.0907 10.9913 36.875 20 36.875C29.0926 36.875 36.875 29.0066 36.875 20C36.875 10.9634 29.0598 3.125 20 3.125Z" fill="black"/>
<path d="M18.3052 15.5446L13.9013 8.32894C13.6793 7.96542 13.207 7.84652 12.8395 8.06183C8.86266 10.3913 6.25 15.1562 6.25 20C6.25 20.4314 6.59977 20.7813 7.03125 20.7813H15.3125C15.744 20.7813 16.0938 20.4314 16.0938 20C16.0938 18.6193 16.8369 17.3264 18.0331 16.6257C18.214 16.5198 18.3448 16.3455 18.3959 16.1422C18.4471 15.9389 18.4144 15.7236 18.3052 15.5446ZM14.588 19.2188H7.83805C8.08266 15.4664 10.0655 11.8468 12.9827 9.82316L16.5873 15.7293C15.5062 16.5968 14.788 17.85 14.588 19.2188Z" fill="black"/>
<path d="M20 17.6562C18.7077 17.6562 17.6562 18.7077 17.6562 20C17.6562 21.2923 18.7077 22.3438 20 22.3438C21.2923 22.3438 22.3438 21.2923 22.3438 20C22.3438 18.7077 21.2923 17.6562 20 17.6562ZM20 20.7812C19.5692 20.7812 19.2188 20.4308 19.2188 20C19.2188 19.5692 19.5692 19.2188 20 19.2188C20.4308 19.2188 20.7812 19.5692 20.7812 20C20.7812 20.4308 20.4308 20.7812 20 20.7812Z" fill="black"/>
<path d="M27.4325 30.8571L23.0286 23.6416C22.8068 23.2779 22.3345 23.1592 21.967 23.3742C21.3727 23.7224 20.6925 23.9063 20.0001 23.9063C19.3076 23.9063 18.6275 23.7224 18.0331 23.3742C17.6656 23.1591 17.1934 23.2779 16.9716 23.6414L12.5676 30.857C12.4584 31.036 12.4257 31.2514 12.4769 31.4547C12.528 31.658 12.6588 31.8323 12.8398 31.9382C14.7491 33.0558 17.4927 33.75 20.0001 33.75C22.5074 33.75 25.2511 33.0558 27.1603 31.9383C27.3413 31.8324 27.4721 31.6582 27.5233 31.4549C27.5744 31.2516 27.5418 31.0361 27.4325 30.8571ZM20.0001 32.1875C18.0511 32.1875 15.9553 31.7267 14.3348 30.9608L17.9341 25.0636C18.5868 25.3301 19.289 25.4688 20.0001 25.4688C20.7112 25.4688 21.4134 25.3301 22.066 25.0635L25.6653 30.9607C24.0448 31.7267 21.9491 32.1875 20.0001 32.1875Z" fill="black"/>
<path d="M27.8343 8.48435C27.4791 8.24654 26.999 8.33865 26.7566 8.69045L21.9558 15.6576C21.8372 15.8298 21.7926 16.0424 21.8319 16.2478C21.8712 16.4531 21.9912 16.6341 22.165 16.7504C23.2552 17.4792 23.9062 18.6941 23.9062 20.0001C23.9062 20.4315 24.2559 20.7813 24.6874 20.7813H32.9687C33.4001 20.7813 33.7499 20.4315 33.7499 20.0001C33.7499 15.4083 31.4279 10.8881 27.8343 8.48435ZM25.4128 19.2188C25.2308 17.9545 24.611 16.7951 23.6598 15.9386L27.5894 10.2357C30.2111 12.2929 31.9384 15.684 32.1626 19.2188H25.4128Z" fill="black"/>
</g>
<defs>
<clipPath id="clip0_2904_1432">
<rect width="40" height="40" fill="white"/>
</clipPath>
</defs>
</svg>
