<svg width="40" height="40" viewBox="0 0 40 40" fill="none" xmlns="http://www.w3.org/2000/svg">
<g clip-path="url(#clip0_2904_1445)">
<path d="M19.6111 4.76855C19.1799 4.76855 18.83 5.11855 18.83 5.54972C18.83 5.9809 19.18 6.33089 19.6111 6.33089C20.0424 6.33089 20.3923 5.9809 20.3923 5.54972C20.3923 5.11855 20.0424 4.76855 19.6111 4.76855Z" fill="black"/>
<path d="M21.1736 14.1427H18.049C17.7126 14.1427 17.4142 14.3578 17.3079 14.6768L16.4865 17.1406L15.6653 14.6769C15.559 14.3578 15.2604 14.1428 14.9242 14.1428H13.9718L12.5574 8.48495C12.4705 8.13722 12.158 7.89331 11.7996 7.89331C11.4411 7.89331 11.1287 8.13729 11.0418 8.48495L9.62742 14.1428H7.11235C6.68094 14.1428 6.33118 14.4926 6.33118 14.9239C6.33118 15.3553 6.68102 15.7051 7.11235 15.7051H10.237C10.5955 15.7051 10.908 15.4611 10.9948 15.1135L11.7994 11.8955L12.6039 15.1135C12.6908 15.4612 13.0033 15.7051 13.3617 15.7051H14.361L15.7453 19.858C15.8516 20.177 16.1502 20.3921 16.4864 20.3921C16.8226 20.3921 17.1211 20.177 17.2275 19.858L18.6118 15.7051H21.1734C21.6048 15.7051 21.9546 15.3552 21.9546 14.9239C21.9548 14.4925 21.605 14.1427 21.1736 14.1427Z" fill="black"/>
<path d="M38.709 33.1928C37.6983 32.2696 27.4314 22.9109 25.9811 21.5888C29.4476 16.0865 28.6939 8.80796 24.0077 4.12172C18.5124 -1.37343 9.61776 -1.37406 4.12184 4.12172C-1.37331 9.61702 -1.37393 18.5117 4.12184 24.0077C8.80566 28.6914 16.0751 29.4439 21.5725 25.9911C21.5841 26.0038 33.3254 38.8487 33.3347 38.8579C34.8604 40.381 37.329 40.3819 38.8546 38.855C40.4768 37.2341 40.3277 34.6295 38.709 33.1928ZM5.22668 22.9028C0.342236 18.0185 0.341376 10.1115 5.22668 5.22648C10.111 0.342035 18.0179 0.341098 22.903 5.22648C27.8178 10.1412 27.8087 18.0423 22.9256 22.9254C18.0391 27.8128 10.1308 27.8069 5.22668 22.9028ZM22.9509 25.1607C22.9427 25.1518 22.9344 25.1432 22.9259 25.1346L22.8649 25.0736C23.2705 24.7492 23.6605 24.4002 24.0305 24.0302C24.3981 23.6627 24.7452 23.2746 25.0686 22.8707L26.8657 24.5092L24.5073 26.8676L22.9509 25.1607ZM37.7498 37.7502C36.7836 38.717 35.2122 38.641 34.3512 37.6603L25.5611 28.0233L28.0215 25.563L37.6607 34.351C38.7108 35.3224 38.6539 36.8469 37.7498 37.7502Z" fill="black"/>
<path d="M22.537 7.14217C22.2628 6.80912 21.7706 6.76115 21.4374 7.03537C21.1042 7.30959 21.0564 7.80186 21.3306 8.13498C24.4106 11.8773 24.1463 17.2857 20.7157 20.7155C17.0591 24.3729 11.1166 24.3734 7.45935 20.7153C3.80186 17.0586 3.80154 11.1161 7.45943 7.45904C9.82466 5.09389 13.3072 4.16835 16.5486 5.04389C16.965 5.15623 17.394 4.90991 17.5065 4.49342C17.6189 4.07694 17.3725 3.64811 16.956 3.53554C13.1764 2.51444 9.11411 3.5946 6.35466 6.35412C2.08655 10.6215 2.08608 17.5525 6.35451 21.8201C10.6218 26.0883 17.5528 26.0887 21.8205 21.8203C25.8249 17.8164 26.0765 11.4428 22.537 7.14217Z" fill="black"/>
</g>
<defs>
<clipPath id="clip0_2904_1445">
<rect width="40" height="40" fill="white"/>
</clipPath>
</defs>
</svg>
