<svg width="40" height="40" viewBox="0 0 40 40" fill="none" xmlns="http://www.w3.org/2000/svg">
<g clip-path="url(#clip0_2904_1463)">
<path d="M27.8268 12.969C27.3955 12.969 27.0455 13.319 27.0455 13.7502C27.0455 14.1815 27.3955 14.5315 27.8268 14.5315C28.258 14.5315 28.608 14.1815 28.608 13.7502C28.608 13.319 28.258 12.969 27.8268 12.969Z" fill="black"/>
<path d="M31.0673 14.9286C30.793 14.5955 30.3008 14.5478 29.9676 14.8222C29.6346 15.0965 29.5869 15.5889 29.8613 15.9219C31.0152 17.3229 31.7041 19.4629 31.7041 21.6462C31.7041 22.0776 32.054 22.4275 32.4854 22.4275C32.9168 22.4275 33.2666 22.0776 33.2666 21.6462C33.2666 19.1119 32.4445 16.6006 31.0673 14.9286Z" fill="black"/>
<path d="M33.972 13.5904C32.2816 11.1805 29.9641 9.85337 27.4464 9.85337C25.0265 9.85337 23.365 11.8038 22.3582 12.4249V9.88853C22.3582 7.66508 23.2242 5.57414 24.7965 4.00117C25.7125 3.08531 25.7127 1.60304 24.7965 0.687023C23.8808 -0.228838 22.3984 -0.229151 21.4823 0.686945C19.6623 2.50687 18.4486 4.77109 17.9407 7.23477C16.2004 4.13281 12.8797 2.03156 9.07698 2.03156H7.51447C7.50978 2.03156 7.50525 2.03218 7.50057 2.03226C7.06728 2.03976 6.73291 2.39664 6.73322 2.8132V4.37531C6.73322 6.74922 7.53994 8.99337 9.02385 10.8015C7.55213 11.6306 6.28611 12.9715 5.32275 14.7346C4.21712 16.7578 3.60822 19.2125 3.60822 21.6463C3.60822 25.1375 4.8722 29.7025 6.82838 33.2761C9.20182 37.6122 12.226 40 15.3441 40C15.9177 40 17.7288 39.3211 18.3103 38.936C19.1454 38.3838 19.8811 38.5701 20.0879 38.5466C20.6454 38.483 21.2139 38.6215 21.6886 38.9358C22.2704 39.3211 24.082 40 24.6558 40C27.7739 40 30.7981 37.6121 33.1716 33.2761C35.1277 29.7025 36.3917 25.1375 36.3917 21.6463C36.3916 18.7188 35.5098 15.7824 33.972 13.5904ZM22.5872 1.79171C22.8922 1.48663 23.3861 1.48632 23.6917 1.79179C23.9963 2.09656 23.9977 2.59007 23.6915 2.8964C21.8241 4.76477 20.7957 7.2479 20.7957 9.88853V12.9649C20.2785 13.05 19.7514 13.0517 19.2332 12.9699C19.2331 12.04 19.2331 10.8194 19.2331 9.88853C19.2332 6.83008 20.4243 3.95453 22.5872 1.79171ZM8.30252 4.7057L11.6495 8.05266C11.9547 8.35774 12.4492 8.35766 12.7544 8.05266C13.0595 7.74758 13.0595 7.2529 12.7544 6.94774L9.4076 3.60093C13.9935 3.77539 17.6707 7.55985 17.6707 12.1877V12.4434C16.2157 11.5741 14.4581 8.97204 10.5314 10.1568C9.16026 8.65345 8.37893 6.74414 8.30252 4.7057ZM31.8008 32.526C30.5946 34.7297 28.0665 38.4235 24.675 38.4375C24.3391 38.3946 22.9601 37.904 22.5511 37.633C21.7954 37.1327 20.8923 36.9041 19.9993 36.9851C19.1064 36.9047 18.2041 37.1328 17.4477 37.633C17.0386 37.904 15.6601 38.3946 15.3246 38.4375C11.9329 38.4235 9.40502 34.7295 8.19877 32.526C6.35916 29.1652 5.17048 24.8947 5.17048 21.6463C5.17064 17.137 7.45025 12.9898 10.591 11.7852C10.591 11.7852 10.591 11.7851 10.5911 11.7851C11.2225 11.5427 11.8835 11.4186 12.5559 11.4159C12.56 11.4159 12.564 11.4159 12.5681 11.4159C14.4747 11.4159 15.8634 13.2903 17.0728 13.8972C18.914 14.8199 21.0682 14.8307 22.9261 13.897C24.1341 13.2914 25.5319 11.4159 27.4462 11.4159C29.4401 11.4159 31.3033 12.5068 32.6926 14.4876C34.0503 16.4231 34.829 19.0324 34.829 21.6463C34.8291 24.8946 33.6404 29.1652 31.8008 32.526Z" fill="black"/>
</g>
<defs>
<clipPath id="clip0_2904_1463">
<rect width="40" height="40" fill="white"/>
</clipPath>
</defs>
</svg>
