<svg width="40" height="40" viewBox="0 0 40 40" fill="none" xmlns="http://www.w3.org/2000/svg">
<g clip-path="url(#clip0_2904_1433)">
<path d="M15.0302 27.1783C14.7255 26.8737 14.2302 26.8737 13.9254 27.1783C13.6199 27.4838 13.6199 27.9784 13.9254 28.284C14.2301 28.5887 14.7255 28.5887 15.0302 28.284C15.3357 27.9784 15.3357 27.4838 15.0302 27.1783Z" fill="black"/>
<path d="M22.1254 20.5783C22.0319 20.2976 21.7876 20.0937 21.4946 20.0519L17.6269 19.4995C17.3833 19.4646 17.1379 19.5466 16.964 19.7204L7.7524 28.9312C6.83974 29.845 6.83974 31.332 7.7531 32.2466C8.66685 33.1591 10.1538 33.1594 11.0683 32.2461L12.8201 30.4935C13.1251 30.1884 13.125 29.6937 12.8198 29.3885C12.5147 29.0834 12.0199 29.0835 11.7148 29.3887L9.96349 31.1408C9.65865 31.4455 9.1624 31.4454 8.85802 31.1416C8.55349 30.8366 8.55349 30.3404 8.85763 30.0358L17.7927 21.1016L19.7265 21.3777L16.1351 24.9685C15.8299 25.2735 15.8299 25.7683 16.135 26.0735C16.4401 26.3787 16.9348 26.3787 17.24 26.0736L21.9366 21.3777C22.1458 21.1685 22.2189 20.859 22.1254 20.5783Z" fill="black"/>
<path d="M38.3964 1.60252C36.2617 -0.532241 32.7975 -0.533179 30.6626 1.60252L23.3172 8.94635L22.7649 8.39401C21.8487 7.47768 20.3666 7.47752 19.4503 8.39393C18.5346 9.30963 18.534 10.7923 19.4501 11.7084L20.0029 12.2614L5.54309 26.7211C4.04082 28.2235 3.55559 30.4552 4.25778 32.4259L0.687073 35.9972C-0.228865 36.9132 -0.229021 38.3957 0.687073 39.3118C1.60293 40.2277 3.08567 40.228 4.00168 39.3118L7.57309 35.7412C9.54363 36.443 11.7756 35.958 13.2779 34.4559L27.7375 19.9962L28.2904 20.5486C29.2066 21.4649 30.6887 21.4651 31.605 20.5487C32.521 19.6328 32.5212 18.1503 31.605 17.234L31.0527 16.6817L38.3962 9.33667C40.5346 7.20018 40.5348 3.74088 38.3964 1.60252ZM12.1728 33.3508C11.0038 34.5198 9.21692 34.8267 7.72613 34.1147C7.42738 33.972 7.07106 34.0331 6.83699 34.2672L2.8966 38.2067C2.59129 38.5121 2.09739 38.5121 1.79192 38.2067C1.48676 37.9015 1.48668 37.4077 1.79207 37.1021L5.7316 33.1617C5.96567 32.9276 6.02676 32.5714 5.8841 32.2726C5.17215 30.7819 5.4791 28.9949 6.64801 27.826L21.1075 13.3666L26.6321 18.8913L12.1728 33.3508ZM30.5 19.4439C30.1953 19.7485 29.7019 19.7502 29.3952 19.4436C24.7849 14.8337 22.4543 12.5049 21.3728 11.4254C21.1945 11.246 20.9306 10.9806 20.5553 10.6036C20.25 10.2984 20.2499 9.80448 20.5553 9.49893C20.8608 9.19346 21.3542 9.19338 21.66 9.49901L30.5 18.3391C30.8053 18.6444 30.8054 19.1383 30.5 19.4439ZM29.9476 15.5767L24.4222 10.0514L31.7676 2.70745C33.2913 1.18307 35.7669 1.18315 37.2914 2.7076C38.8181 4.23417 38.8196 6.70463 37.2914 8.23151L29.9476 15.5767Z" fill="black"/>
</g>
<defs>
<clipPath id="clip0_2904_1433">
<rect width="40" height="40" fill="white"/>
</clipPath>
</defs>
</svg>
