<svg width="40" height="40" viewBox="0 0 40 40" fill="none" xmlns="http://www.w3.org/2000/svg">
<g clip-path="url(#clip0_2904_1429)">
<path d="M33.6925 6.30762C33.3871 6.00293 32.8926 6.00293 32.5879 6.30762C32.2825 6.61309 32.2825 7.10754 32.5879 7.41222C32.8926 7.71769 33.3871 7.71769 33.6925 7.41222C33.9971 7.10754 33.9971 6.61301 33.6925 6.30762Z" fill="black"/>
<path d="M38.8549 1.14626C37.3288 -0.380923 34.8582 -0.381548 33.3314 1.14603L9.83722 24.6396C7.13855 23.9138 4.28566 24.6673 2.29011 26.6628C-0.763091 29.716 -0.763325 34.6571 2.29011 37.7106C5.34332 40.7638 10.2844 40.764 13.3378 37.7106C15.3335 35.7149 16.0869 32.8621 15.361 30.1635L17.2734 28.2512V28.2511C17.9489 27.5756 38.1768 7.34705 38.8544 6.66939C40.3813 5.14369 40.3825 2.67275 38.8549 1.14626ZM16.7211 26.5938L15.6166 25.4888L18.3092 22.7963L19.4139 23.901L16.7211 26.5938ZM20.5188 22.7961L19.4141 21.6914L21.6239 19.4817L22.7282 20.5865L20.5188 22.7961ZM23.833 19.4818L22.7285 18.377L24.9378 16.1677L26.0426 17.2721L23.833 19.4818ZM27.1473 16.1673L26.0425 15.0629L28.2522 12.8532L29.3568 13.9577L27.1473 16.1673ZM37.7499 5.56439L30.4616 12.8529L29.3571 11.7484L31.4826 9.62283C31.7877 9.31775 31.7877 8.82314 31.4826 8.51798C31.1775 8.21298 30.683 8.21298 30.3778 8.51798L10.5292 28.3667C8.6998 27.0657 6.13878 27.2333 4.4991 28.8722C2.67246 30.6999 2.67246 33.6737 4.4991 35.5013C4.49925 35.5014 4.49933 35.5015 4.49941 35.5017C6.32699 37.3281 9.30074 37.3283 11.1289 35.5013C12.7672 33.862 12.935 31.3011 11.6341 29.4716L14.5119 26.5938L15.6164 27.6988L13.9259 29.3893C13.7161 29.5991 13.6433 29.9093 13.7378 30.1905C14.4996 32.4578 13.923 34.916 12.233 36.606C9.7905 39.0486 5.83761 39.0489 3.39488 36.606C0.952222 34.1635 0.951909 30.2106 3.39488 27.7678C5.08222 26.0802 7.54003 25.5002 9.81035 26.2631C10.0913 26.3575 10.4017 26.2847 10.6115 26.075L34.4364 2.25056C35.3519 1.33455 36.8334 1.33369 37.7501 2.25095C38.6663 3.16658 38.6668 4.64814 37.7499 5.56439ZM10.0241 34.3964C8.80558 35.6144 6.82285 35.6144 5.6041 34.3966C4.38628 33.1779 4.38628 31.1952 5.60394 29.9769C6.82253 28.7588 8.80542 28.7589 10.0238 29.9766C11.2418 31.1952 11.2418 33.1781 10.0241 34.3964Z" fill="black"/>
</g>
<defs>
<clipPath id="clip0_2904_1429">
<rect width="40" height="40" fill="white"/>
</clipPath>
</defs>
</svg>
