<svg width="40" height="40" viewBox="0 0 40 40" fill="none" xmlns="http://www.w3.org/2000/svg">
<g clip-path="url(#clip0_2904_1451)">
<path d="M26.8023 33.9789C26.4976 33.6734 26.0023 33.6734 25.6976 33.9789C25.3922 34.2836 25.3922 34.7789 25.6976 35.0836C26.0023 35.3891 26.4976 35.3891 26.8023 35.0836C27.1078 34.7789 27.1078 34.2836 26.8023 33.9789Z" fill="black"/>
<path d="M38.7791 23.615C38.7637 23.6032 33.6194 20.8101 32.5802 20.277C31.6663 18.7658 28.7936 14.0138 28.7933 14.0132C28.2768 13.1604 27.3833 12.6068 26.3902 12.5162C26.3053 12.501 26.2489 12.5015 26.1893 12.5062C23.6407 12.505 16.7379 12.5014 13.7504 12.5C13.7317 12.4984 13.7185 12.5004 13.7027 12.5014C13.695 12.5019 13.6875 12.503 13.6798 12.5036C13.6744 12.504 13.6691 12.5044 13.6637 12.505C12.6524 12.5793 11.7361 13.1402 11.2064 14.0138C11.2064 14.0138 8.33386 18.7658 7.41996 20.277C5.96613 21.0227 1.82894 23.3039 1.36113 23.5286C1.31152 23.5524 1.26457 23.5814 1.22105 23.615C-0.29137 24.7858 -0.403558 26.9839 0.915349 28.3028C1.9209 29.3094 3.47886 29.5095 4.70535 28.7882C4.83488 28.7118 7.41918 27.0679 9.00714 26.1878C10.2032 25.5245 11.2875 24.6686 12.2307 23.6428C12.631 23.2061 12.7593 23.0675 12.9689 22.8393V29.3584L6.14644 32.7307C5.21418 33.1909 4.50222 34.0255 4.19316 35.0203C3.88363 36.0155 3.99691 37.1069 4.50418 38.015C5.19949 39.2579 6.4716 40 7.90714 40H32.0931C33.5021 40 34.7622 39.2789 35.4639 38.0712C35.992 37.162 36.1206 36.0624 35.8171 35.0552C35.5143 34.0455 34.7995 33.1987 33.8557 32.7317L27.0314 29.3585V22.8389C27.2938 23.1244 27.5511 23.4045 27.7936 23.6686C28.7201 24.6767 29.7966 25.5243 30.9932 26.1881C32.5877 27.0718 35.1614 28.7096 35.2964 28.7891C36.5171 29.5069 38.0756 29.3132 39.0846 28.3032C40.4077 26.98 40.2868 24.7821 38.7791 23.615ZM17.6564 14.0566L22.3439 14.0589V16.4062C22.3439 17.6986 21.2925 18.75 20.0001 18.75C18.7057 18.75 17.6564 17.7008 17.6564 16.4062V14.0566ZM14.5314 14.055L16.0939 14.0558V16.4062C16.0939 18.5641 17.8418 20.3125 20.0001 20.3125C22.154 20.3125 23.9064 18.5601 23.9064 16.4062V14.0597L25.4689 14.0605V21.0937V29.0625H14.5314C14.5314 28.6639 14.5314 14.1893 14.5314 14.055ZM11.0782 22.5867C11.0764 22.5886 11.075 22.5907 11.0732 22.5926C10.2459 23.4911 9.29589 24.241 8.24949 24.8213C6.65191 25.7068 4.06824 27.3464 3.91191 27.4421C3.30066 27.8014 2.523 27.7013 2.0205 27.1982C1.3884 26.5662 1.39988 25.5039 2.12316 24.8944C2.918 24.4908 7.1041 22.18 8.32199 21.5714C8.4541 21.5054 8.56472 21.4032 8.64121 21.2768C9.39355 20.0332 12.5433 14.8228 12.5432 14.8228C12.6547 14.6388 12.8004 14.4828 12.9689 14.3601V20.5293C12.955 20.5442 11.0853 22.5789 11.0782 22.5867ZM17.6564 38.4375H14.5314C13.6698 38.4375 12.9689 37.7365 12.9689 36.875C12.9689 36.0134 13.6698 35.3125 14.5314 35.3125H17.6564V38.4375ZM33.163 34.1322C33.7197 34.4077 34.1416 34.9078 34.3207 35.505C34.5002 36.1005 34.4244 36.7499 34.1128 37.2864C33.6878 38.0179 32.9516 38.4375 32.0931 38.4375H19.2189V35.3125H23.1251C23.5565 35.3125 23.9064 34.9627 23.9064 34.5312C23.9064 34.0997 23.5565 33.75 23.1251 33.75H14.5314C12.8082 33.75 11.4064 35.1518 11.4064 36.875C11.4064 37.4439 11.56 37.9775 11.8268 38.4375H7.90707C7.03246 38.4375 6.28918 38.0054 5.868 37.2525C5.56879 36.717 5.50214 36.0725 5.68519 35.4841C5.86785 34.8962 6.28808 34.4033 6.83839 34.1316L13.9327 30.625H26.0675L33.163 34.1322ZM37.9794 27.1987C37.4771 27.7014 36.6995 27.8015 36.0932 27.4452C35.9203 27.34 33.3675 25.7176 31.7509 24.8215C30.7013 24.2394 29.757 23.4957 28.9443 22.6114C28.351 21.9655 27.6195 21.1698 27.0314 20.5299V14.3632C27.2004 14.4847 27.346 14.6396 27.4565 14.8221C27.4565 14.8221 30.6066 20.0332 31.3589 21.277C31.4354 21.4034 31.5461 21.5054 31.6782 21.5715C32.8882 22.1761 37.0893 24.4945 37.8771 24.8946C38.6024 25.5058 38.61 26.5682 37.9794 27.1987Z" fill="black"/>
<path d="M20 0C16.9846 0 14.5313 2.45328 14.5313 5.46875C14.5313 8.48422 16.9846 10.9375 20 10.9375C23.0154 10.9375 25.4688 8.48422 25.4688 5.46875C25.4688 2.45328 23.0155 0 20 0ZM20 9.375C17.8461 9.375 16.0938 7.62266 16.0938 5.46875C16.0938 3.31484 17.8461 1.5625 20 1.5625C22.1539 1.5625 23.9063 3.31484 23.9063 5.46875C23.9063 7.62266 22.1539 9.375 20 9.375Z" fill="black"/>
</g>
<defs>
<clipPath id="clip0_2904_1451">
<rect width="40" height="40" fill="white"/>
</clipPath>
</defs>
</svg>
