<svg width="40" height="40" viewBox="0 0 40 40" fill="none" xmlns="http://www.w3.org/2000/svg">
<g clip-path="url(#clip0_2904_1441)">
<path d="M12.4828 17.6595C12.0522 17.6595 11.7026 18.0091 11.7026 18.4397C11.7026 18.8703 12.0522 19.2199 12.4828 19.2199C12.9134 19.2199 13.2629 18.8703 13.2629 18.4397C13.2629 18.0091 12.9134 17.6595 12.4828 17.6595Z" fill="black"/>
<path d="M38.4272 27.3344C38.4272 25.629 39.41 23.1455 39.8048 21.6531C40.7898 17.9309 37.9309 14.1252 33.8445 14.0725C33.8412 14.0725 33.8378 14.0724 33.8345 14.0724H28.0659C28.0625 14.0724 28.0592 14.0724 28.0558 14.0725C26.7175 14.0897 25.4646 14.5082 24.4244 15.2705C23.9822 14.2135 23.2835 13.2678 22.3871 12.5345C21.3402 11.6782 20.062 11.1459 18.724 10.9955V10.17C18.724 8.87949 17.6741 7.82957 16.3835 7.82957H14.8232V4.7088H17.9439C18.3747 4.7088 18.724 4.3595 18.724 3.92864V3.14849H22.3018L23.6335 4.48028C23.7859 4.63262 23.9856 4.7088 24.1852 4.7088C24.3848 4.7088 24.5846 4.63262 24.7368 4.48028C25.0415 4.17559 25.0415 3.68161 24.7368 3.37692L23.1765 1.81661C23.0303 1.67036 22.8318 1.5881 22.6249 1.5881H18.5899C18.2678 0.680053 17.4007 0.02771 16.3836 0.02771H8.58186C7.29131 0.02771 6.24139 1.07763 6.24139 2.36825V3.92856C6.24139 4.35942 6.59069 4.70872 7.02155 4.70872H10.1422V7.82942H8.58194C7.29139 7.82942 6.24147 8.87933 6.24147 10.1699V10.9936C2.73554 11.3831 0 14.3637 0 17.9716V18.4397C0 19.2174 0 35.3001 0 36.0715C0 38.2224 1.74992 39.9723 3.90085 39.9723H21.0646C22.2688 39.9723 23.3757 39.4248 24.1035 38.5191C25.2414 39.4677 26.6965 39.9645 28.0658 39.9645L33.7462 39.9653C38.0054 39.9312 40.7711 36.0641 39.805 32.4001C39.3931 30.8375 38.4272 29.0309 38.4272 27.3344ZM7.8017 3.14849V2.36833C7.8017 1.93818 8.1517 1.58818 8.58186 1.58818H16.3836C16.8137 1.58818 17.1637 1.93818 17.1637 2.36833V3.14849H14.043H10.9223H7.8017ZM13.2629 4.7088V7.82949H11.7026V4.7088H13.2629ZM7.8017 10.17C7.8017 9.73988 8.1517 9.38988 8.58186 9.38988H10.9223H14.043H16.3835C16.8136 9.38988 17.1636 9.73988 17.1636 10.17V10.9502H7.8017V10.17ZM1.56031 19.2199H9.36201C9.79287 19.2199 10.1422 18.8706 10.1422 18.4397C10.1422 18.0089 9.79287 17.6596 9.36201 17.6596H1.56984C1.73218 14.793 4.11499 12.5105 7.02147 12.5105H17.9438C20.3795 12.5105 22.5301 14.1532 23.1935 16.465C22.9018 16.8371 22.6557 17.2364 22.4592 17.6596H15.6033C15.1725 17.6596 14.8232 18.0089 14.8232 18.4398C14.8232 18.8706 15.1725 19.2121 15.6033 19.2121H21.9769C21.8449 20.0196 21.8834 20.8531 22.0953 21.6531C22.4898 23.1445 23.4729 25.6289 23.4729 27.3344C23.4729 28.7736 22.7769 30.2922 22.3074 31.7026H1.56031V19.2199ZM21.0646 38.4121H3.90085C2.61031 38.4121 1.56039 37.3622 1.56039 36.0716V33.263H21.937C21.7853 34.6934 22.1692 36.1505 23.0228 37.3525C22.596 38.0066 21.8666 38.4121 21.0646 38.4121ZM33.8242 38.4122L28.1539 38.4129L28.0758 38.4122C25.0408 38.3731 22.8307 35.5555 23.6329 32.6928C24.0396 31.2377 25.0332 29.3149 25.0332 27.3344C25.0332 25.332 23.9982 22.7449 23.6036 21.2538C22.8708 18.4869 25.041 15.6667 28.0711 15.6249H33.8289C36.8787 15.6671 39.0231 18.5072 38.2963 21.254C37.902 22.7452 36.8668 25.3322 36.8668 27.3345C36.8668 29.3679 37.9084 31.3277 38.2962 32.798C39.0216 35.5495 36.8763 38.3726 33.8242 38.4122Z" fill="black"/>
<path d="M35.3072 27.3336C35.3072 24.7306 36.5472 21.7637 36.7878 20.8548C37.2704 19.0293 35.77 17.2186 33.8446 17.1931C33.8412 17.1931 33.8377 17.193 33.8342 17.193H28.1062C28.103 17.193 28.0998 17.193 28.0965 17.1931C26.0413 17.2189 24.6477 19.0981 25.1123 20.8556C25.3648 21.8065 26.5935 24.7277 26.5935 27.3336C26.5935 30.0072 25.3519 32.2872 25.1128 33.1955C24.6638 34.8952 25.9587 36.8167 28.1438 36.8445C28.1472 36.8445 28.1505 36.8446 28.1538 36.8446C28.1605 36.8446 28.1631 36.8446 28.1637 36.8446C28.1625 36.8446 28.1571 36.8446 28.1548 36.8446C28.1791 36.8446 28.6791 36.8445 33.8035 36.8437C35.8573 36.8179 37.2508 34.9472 36.7879 33.1965C36.5235 32.1944 35.3072 30.0623 35.3072 27.3336ZM33.781 35.2915L28.1593 35.2921C27.0362 35.2753 26.4243 34.3405 26.6217 33.5933C26.8154 32.8573 28.1539 30.3401 28.1539 27.3336C28.1539 24.426 26.8594 21.3549 26.6207 20.456C26.4152 19.6788 27.0912 18.761 28.1116 18.7455H33.8287C34.7419 18.7605 35.498 19.6288 35.2794 20.4558C35.0338 21.3839 33.7469 24.4067 33.7469 27.3336C33.7469 30.3539 35.0755 32.8226 35.2794 33.595C35.4806 34.3562 34.8293 35.2783 33.781 35.2915Z" fill="black"/>
<path d="M12.4826 20.7803C9.90156 20.7803 7.80164 22.8802 7.80164 25.4613C7.80164 28.0424 9.90156 30.1423 12.4826 30.1423C15.0637 30.1423 17.1637 28.0424 17.1637 25.4613C17.1637 22.8801 15.0637 20.7803 12.4826 20.7803ZM12.4826 28.5819C10.7619 28.5819 9.36195 27.182 9.36195 25.4612C9.36195 23.7404 10.7619 22.3405 12.4826 22.3405C14.2034 22.3405 15.6033 23.7404 15.6033 25.4612C15.6033 27.182 14.2033 28.5819 12.4826 28.5819Z" fill="black"/>
</g>
<defs>
<clipPath id="clip0_2904_1441">
<rect width="40" height="40" fill="white"/>
</clipPath>
</defs>
</svg>
