<svg width="40" height="40" viewBox="0 0 40 40" fill="none" xmlns="http://www.w3.org/2000/svg">
<g clip-path="url(#clip0_2904_1428)">
<path d="M29.606 17.0217C29.3005 16.7162 28.806 16.7162 28.5005 17.0217C28.1958 17.3264 28.1958 17.8209 28.5005 18.1264C28.806 18.4319 29.3005 18.4319 29.606 18.1264C29.9107 17.8209 29.9107 17.3264 29.606 17.0217Z" fill="black"/>
<path d="M39.3091 5.10849L34.8895 0.688902C33.9735 -0.226874 32.4913 -0.227186 31.5752 0.688902L30.158 2.10608C29.5769 2.68717 29.3545 3.50537 29.5298 4.28287L23.1227 5.41341C21.6938 5.6663 20.3973 6.34168 19.3739 7.36605L18.0042 8.73495C17.1022 9.63698 16.7346 10.8741 16.901 12.0493C15.717 11.8821 14.4902 12.2497 13.5855 13.1543C12.6822 14.0571 12.3128 15.2829 12.4799 16.4694C11.2964 16.3029 10.0699 16.67 9.16596 17.574C8.28831 18.4516 7.88854 19.6668 8.0612 20.8903C6.88581 20.7237 5.64863 21.0913 4.74645 21.9934L1.59874 25.1403C-0.533049 27.2723 -0.533127 30.7419 1.59881 32.8749L7.12316 38.3992C9.25572 40.5307 12.7252 40.5312 14.8576 38.399L18.0044 35.2514C18.9066 34.3492 19.2742 33.1118 19.1075 31.9363C20.3255 32.1081 21.5428 31.7129 22.4238 30.8319C23.3257 29.9301 23.6932 28.693 23.5267 27.5175C24.7383 27.6886 25.9575 27.2992 26.8434 26.4124C27.7454 25.5105 28.1129 24.2735 27.9465 23.0984C29.1695 23.271 30.3851 22.8716 31.2632 21.9935L32.6315 20.6244C33.6564 19.6005 34.3317 18.304 34.5846 16.8747L35.715 10.4681C36.491 10.643 37.3095 10.4222 37.8919 9.83986L39.3091 8.42268C40.2251 7.50675 40.2252 6.0245 39.3091 5.10849ZM16.8995 34.1465L13.7527 37.2941C12.2299 38.817 9.75134 38.8169 8.22792 37.2941L2.70381 31.7701C1.18093 30.2465 1.18093 27.768 2.70365 26.2452L5.85137 23.0983C6.76519 22.1844 8.25214 22.1844 9.16604 23.0983L16.8996 30.8318C17.8135 31.7457 17.8135 33.2326 16.8995 34.1465ZM21.3189 29.727C20.4055 30.6404 18.9216 30.6443 18.0043 29.727L10.2708 21.9935C9.3551 21.0777 9.35486 19.5948 10.2709 18.6788C11.1859 17.7636 12.6678 17.7633 13.5848 18.6783C13.5851 18.6785 13.5852 18.6786 13.5855 18.6789L21.3187 26.412L21.3188 26.4121C21.3188 26.4121 21.3188 26.4121 21.3188 26.4122C22.2324 27.3265 22.2326 28.8134 21.3189 29.727ZM25.7383 25.3078C24.8234 26.2238 23.3393 26.224 22.4239 25.3075L14.6901 17.5738C13.7739 16.6582 13.7734 15.1755 14.6904 14.2593C15.6067 13.343 17.0878 13.3428 18.0043 14.2593L25.7386 21.9936C26.6523 22.9072 26.6523 24.3938 25.7383 25.3078ZM33.0459 16.6029C32.8492 17.7145 32.324 18.7229 31.5267 19.5195L30.1581 20.8888C29.2443 21.8027 27.7573 21.8027 26.8434 20.8888L19.1091 13.1545C18.1953 12.2406 18.1953 10.7537 19.1089 9.83994L20.4789 8.47081C21.2749 7.67394 22.2835 7.14879 23.3946 6.95207L30.4457 5.70794L34.29 9.55229L33.0459 16.6029ZM38.2042 7.31785L36.787 8.73503C36.4817 9.04026 35.9879 9.04034 35.6825 8.73503L31.263 4.31544C30.9578 4.01005 30.9577 3.51631 31.2631 3.21092L32.6803 1.79374C32.9857 1.48843 33.4795 1.48851 33.7848 1.79374L38.2042 6.21332C38.509 6.51817 38.5101 7.01183 38.2042 7.31785Z" fill="black"/>
<path d="M39.4853 29.5921L36.0041 22.7719C35.8705 22.5104 35.6018 22.3458 35.3082 22.3458C35.0146 22.3458 34.7459 22.5104 34.6123 22.7719L31.1313 29.5918C29.5492 32.6872 31.8038 36.4082 35.3082 36.4082C38.812 36.4082 41.0674 32.6878 39.4853 29.5921ZM35.3082 34.8458C32.9696 34.8458 31.4701 32.3622 32.5229 30.3025L35.3082 24.8455L38.0937 30.3028C39.1452 32.3602 37.649 34.8458 35.3082 34.8458Z" fill="black"/>
<path d="M27.396 14.8115L23.6241 11.0396C23.319 10.7345 22.8244 10.7345 22.5192 11.0396C22.2141 11.3447 22.2141 11.8394 22.5192 12.1444L26.2911 15.9163C26.5962 16.2214 27.0907 16.2214 27.396 15.9163C27.7011 15.6111 27.7011 15.1165 27.396 14.8115Z" fill="black"/>
</g>
<defs>
<clipPath id="clip0_2904_1428">
<rect width="40" height="40" fill="white"/>
</clipPath>
</defs>
</svg>
