<svg width="40" height="40" viewBox="0 0 40 40" fill="none" xmlns="http://www.w3.org/2000/svg">
<g clip-path="url(#clip0_2904_1456)">
<path d="M30.1537 3.67126C29.7225 3.67126 29.3725 4.02126 29.3725 4.45251C29.3725 4.88376 29.7225 5.23376 30.1537 5.23376C30.585 5.23376 30.935 4.88376 30.935 4.45251C30.935 4.02126 30.5851 3.67126 30.1537 3.67126Z" fill="black"/>
<path d="M30.8687 0.624903C25.9692 -0.946188 21.8746 0.811934 19.9973 1.89529C18.1202 0.8117 14.0263 -0.9465 9.12557 0.624903C2.63558 2.7067 -0.407152 12.1834 4.79651 19.8299C7.2619 23.4512 7.59112 26.2444 7.93963 29.2016C8.19479 31.3664 8.45861 33.6049 9.56064 36.2219C10.3017 37.9813 11.3493 39.9939 12.8992 39.9937C12.9132 39.9937 12.9275 39.9936 12.9416 39.9933C14.1879 39.9638 15.1923 38.7277 16.1979 35.9851C16.7102 34.5871 17.0384 32.9374 17.3558 31.3422C17.9271 28.4708 18.518 25.5017 20.0029 25.4913C20.0055 25.4913 20.0081 25.4913 20.0108 25.4913C21.4794 25.4913 22.069 28.4614 22.6391 31.3337C22.9567 32.934 23.2852 34.5889 23.7973 35.9853C24.8042 38.7321 25.8085 39.9701 27.0537 39.9995C27.0678 39.9998 27.0818 40 27.0959 40C28.6427 40 29.6917 37.9842 30.4339 36.2219C31.487 33.721 31.7629 31.488 32.0297 29.3286C32.4053 26.2882 32.7601 23.4165 35.2038 19.8217C40.4684 12.0764 37.2498 2.67045 30.8687 0.624903ZM33.9115 18.9432C31.2555 22.8503 30.8607 26.0463 30.4788 29.137C30.2134 31.2852 29.9627 33.3143 28.9937 35.6153C27.844 38.3449 27.1773 38.4374 27.093 38.4374C27.0921 38.4374 27.0913 38.4374 27.0905 38.4374C27.0605 38.4367 26.3416 38.3862 25.2644 35.4473C24.7941 34.1651 24.4777 32.571 24.1718 31.0295C23.8284 29.299 23.504 27.6644 22.9693 26.3885C22.2852 24.7561 21.2908 23.9286 20.0134 23.9286C20.0063 23.9286 19.999 23.9286 19.9919 23.9287C18.7091 23.9377 17.711 24.7716 17.0255 26.4074C16.491 27.6825 16.1667 29.3121 15.8235 31.0373C15.5177 32.5741 15.2015 34.1634 14.731 35.4474C13.6557 38.3801 12.9352 38.4305 12.905 38.4312C12.835 38.4325 12.1605 38.3684 11.001 35.6155C9.98478 33.2023 9.74525 31.1703 9.49174 29.0188C9.1365 26.0049 8.76916 22.8883 6.08854 18.9509C1.39753 12.0578 4.22518 3.83802 9.60299 2.11295C14.2795 0.613341 18.1391 2.56138 19.5814 3.46865C19.8355 3.62857 20.159 3.62865 20.4131 3.46873C21.8559 2.5617 25.7165 0.61381 30.3918 2.11303C35.8761 3.87091 38.5076 12.1815 33.9115 18.9432Z" fill="black"/>
<path d="M34.1462 8.088C33.8924 7.35136 33.5561 6.67355 33.1467 6.07332C32.9035 5.71676 32.4174 5.62496 32.061 5.86816C31.7046 6.11129 31.6128 6.5973 31.856 6.95379C32.187 7.43902 32.4605 7.99191 32.6689 8.59691C33.4474 10.8566 33.2443 13.4932 32.1116 15.8308C31.9234 16.2191 32.0856 16.6863 32.4739 16.8745C32.8623 17.0628 33.3296 16.9005 33.5177 16.5122C34.8292 13.8057 35.0584 10.7352 34.1462 8.088Z" fill="black"/>
<path d="M17.1585 10.6872L14.0134 9.63889L12.9651 6.49381C12.8587 6.17483 12.5601 5.95959 12.2239 5.95959C11.8876 5.95959 11.5891 6.17475 11.4827 6.49381L10.4344 9.63889L7.28928 10.6872C6.9703 10.7936 6.75507 11.0922 6.75507 11.4284C6.75507 11.7647 6.97022 12.0632 7.28928 12.1696L10.4344 13.2179L11.4827 16.363C11.589 16.682 11.8876 16.8972 12.2239 16.8972C12.5601 16.8972 12.8586 16.6821 12.9651 16.363L14.0134 13.2179L17.1585 12.1696C17.4775 12.0633 17.6927 11.7647 17.6927 11.4284C17.6927 11.0922 17.4775 10.7936 17.1585 10.6872ZM13.1487 11.8591C12.9154 11.9369 12.7323 12.1199 12.6546 12.3533L12.2239 13.6454L11.7932 12.3533C11.7154 12.12 11.5324 11.9369 11.299 11.8591L10.0069 11.4284L11.299 10.9977C11.5323 10.92 11.7154 10.7369 11.7932 10.5036L12.2239 9.21139L12.6546 10.5036C12.7323 10.7369 12.9154 10.92 13.1487 10.9977L14.4409 11.4284L13.1487 11.8591Z" fill="black"/>
</g>
<defs>
<clipPath id="clip0_2904_1456">
<rect width="40" height="40" fill="white"/>
</clipPath>
</defs>
</svg>
