<svg width="40" height="40" viewBox="0 0 40 40" fill="none" xmlns="http://www.w3.org/2000/svg">
<g clip-path="url(#clip0_2904_1425)">
<path d="M14.7748 3.75104C14.4694 3.44643 13.9749 3.44643 13.6695 3.75104C13.3649 4.05643 13.3649 4.55096 13.6695 4.85635C13.9749 5.16096 14.4694 5.16096 14.7748 4.85635C15.0794 4.55096 15.0794 4.05651 14.7748 3.75104Z" fill="black"/>
<path d="M38.8532 32.018C38.8498 32.0147 38.8465 32.0114 38.8431 32.0081L32.7105 26.0928C32.829 25.3988 32.4553 24.5502 32.0408 23.6092C31.5568 22.5103 27.8416 13.4352 26.7021 10.6536C26.4153 9.95623 25.7078 9.54982 24.9415 9.64154C23.4571 9.8167 22.0268 9.5956 20.9143 9.0192C20.682 8.89881 20.4285 8.83701 20.1742 8.83381C19.9541 8.23717 19.8766 7.52756 19.7957 6.78608C19.649 5.44405 19.4975 4.05647 18.473 3.03155L16.1288 0.686794C15.4079 -0.0328145 14.3145 -0.20547 13.4085 0.256951C1.52289 6.33475 1.77093 6.26155 1.7582 6.27389C0.522107 6.98647 -0.0814858 8.16225 0.0128109 9.67389C0.181873 12.385 2.5221 15.4777 3.9021 17.08C5.96124 19.4711 8.3828 21.4753 10.0712 22.186C10.6669 22.4368 11.3712 22.6138 11.9747 22.3887C12.5303 22.6518 13.0533 23.0198 13.5021 23.4686C13.8518 23.8183 14.1479 24.2047 14.3867 24.6204C14.0287 25.4701 14.4195 26.7134 15.588 28.4746C16.4918 29.8367 17.7225 31.2757 18.4833 32.036C22.4401 35.9936 29.2079 40 33.8461 40C35.5138 40 38.951 39.2109 39.4118 37.487C39.412 37.4865 39.412 37.486 39.4121 37.4856L39.8657 35.7869C40.2238 34.4448 39.8359 33.0006 38.8532 32.018ZM25.1265 11.1928C25.1778 11.1866 25.2385 11.2013 25.2575 11.2476L25.766 12.4861L24.6841 12.7025C24.261 12.7871 23.9867 13.1986 24.0713 13.6216C24.1561 14.0459 24.5686 14.3188 24.9904 14.2344L26.3705 13.9584C26.7738 14.9404 26.8664 15.1643 27.1077 15.7529L26.0338 15.9678C25.6108 16.0524 25.3364 16.464 25.421 16.887C25.5057 17.3098 25.9169 17.5843 26.3403 17.4997L27.7119 17.2254L28.4304 18.9748C28.4335 18.9825 28.4368 18.9902 28.4403 18.9978L28.4493 19.0198L27.3992 19.23C26.9761 19.3146 26.7017 19.7261 26.7864 20.1492C26.871 20.572 27.2823 20.8465 27.7057 20.7619L29.0537 20.4922C29.2984 21.0878 29.572 21.7543 29.7909 22.2869L28.6177 22.5218C28.1946 22.6065 27.9203 23.0181 28.005 23.4411C28.0902 23.8662 28.5035 24.1382 28.9243 24.0537L30.4008 23.7582C30.6775 24.399 31.1309 25.3658 31.1691 25.7311C31.0579 25.7628 30.7992 25.8067 30.2581 25.7762C29.5796 25.7382 28.6267 25.5955 27.3444 25.34C27.1067 25.2928 26.8796 25.113 26.7756 24.8554C23.6354 17.1219 21.7598 12.336 21.1098 10.7994C22.3164 11.2204 23.708 11.3602 25.1265 11.1928ZM11.399 20.9299C10.0086 21.1632 4.19444 16.1854 2.17804 11.7166C0.649997 8.32998 2.46976 7.74334 2.54523 7.6235C2.80195 7.47569 3.02382 7.34819 3.20577 7.26748C3.53202 7.12217 3.70015 7.06952 4.38819 7.71647C5.22968 8.50779 6.53233 10.1475 8.69045 12.864C9.61592 14.0289 10.6647 15.3491 11.9277 16.9197C12.7394 17.9311 12.7101 19.7628 11.399 20.9299ZM9.91373 11.8919C7.63678 9.02576 6.38256 7.44694 5.45835 6.57803C5.33343 6.46061 5.20952 6.35124 5.08554 6.25116L14.1182 1.64874C14.4201 1.4946 14.7844 1.55242 15.0245 1.79195L17.3686 4.13608C18.0045 4.77233 18.1204 5.83288 18.2429 6.95569C18.3625 8.05029 18.4878 9.16623 19.0628 10.1215C19.3625 10.6252 19.7381 11.5352 20.7107 13.9647C20.5871 13.9634 20.4622 13.962 20.3354 13.9604C17.6465 13.9282 14.62 13.8932 12.7359 15.431C11.6558 14.0847 10.7358 12.9266 9.91373 11.8919ZM14.6068 22.364C14.1821 21.9391 13.7041 21.5694 13.1943 21.2682C14.1611 19.8846 14.2618 18.1089 13.6255 16.7251C15.05 15.4604 17.8433 15.4932 20.3169 15.5227C20.6687 15.5269 21.0069 15.5305 21.337 15.5309C22.2111 17.719 23.4858 20.9053 25.3277 25.4414C25.416 25.6599 25.5374 25.8625 25.6852 26.0449C25.4568 26.7367 25.0694 27.3675 24.5489 27.8874C24.4238 28.0126 24.2918 28.1301 24.1544 28.2399C21.5911 26.1005 20.8875 25.2228 18.9082 24.4153C17.8864 23.9987 16.6218 23.6078 15.6703 23.7225C15.3759 23.2333 15.0206 22.7778 14.6068 22.364ZM37.9023 37.0844C37.8718 37.1942 37.5616 37.559 36.4975 37.935C35.5913 38.2553 34.6115 38.4167 34.0425 38.4346C29.8793 38.5655 23.2982 34.6422 19.588 30.9312C18.9334 30.277 17.8507 29.0196 17.0207 27.8049C15.8744 26.1278 15.8158 25.4443 15.8277 25.2657C16.1493 25.2074 17.1086 25.3686 18.3182 25.8619C20.0964 26.5873 20.6433 27.3702 23.5436 29.7631C23.5889 29.811 23.6393 29.8521 23.6935 29.8863C34.0053 38.3569 37.1594 36.8062 37.8838 37.0215C37.8881 37.031 37.8937 37.0452 37.8998 37.0649C37.9037 37.0774 37.9034 37.0798 37.9023 37.0844ZM38.3563 35.3838L38.3183 35.5259C37.8451 35.3942 37.3583 35.4486 36.9744 35.4486C35.174 35.4486 31.725 34.3374 25.3835 29.2464C25.4757 29.1644 25.5657 29.0797 25.6532 28.9922C26.2613 28.3849 26.7333 27.6634 27.046 26.8728C28.6399 27.1902 29.7725 27.3496 30.5945 27.3496C31.0155 27.3496 31.3547 27.3074 31.6328 27.2237L37.7531 33.1272C38.3395 33.7168 38.5706 34.5809 38.3563 35.3838Z" fill="black"/>
<path d="M12.1023 5.30557C11.9063 4.9212 11.4361 4.76839 11.0517 4.96417L8.20447 6.41471C7.8201 6.61057 7.66721 7.08088 7.86307 7.46534C8.0576 7.84698 8.52666 8.00393 8.91361 7.80674L11.7609 6.3562C12.1453 6.16034 12.2981 5.69003 12.1023 5.30557Z" fill="black"/>
</g>
<defs>
<clipPath id="clip0_2904_1425">
<rect width="40" height="40" fill="white"/>
</clipPath>
</defs>
</svg>
