<svg width="40" height="40" viewBox="0 0 40 40" fill="none" xmlns="http://www.w3.org/2000/svg">
<path d="M26.25 6.71875C25.8187 6.71875 25.4688 7.06875 25.4688 7.5C25.4688 7.93125 25.8187 8.28125 26.25 8.28125C26.6812 8.28125 27.0312 7.93125 27.0312 7.5C27.0312 7.06875 26.6812 6.71875 26.25 6.71875Z" fill="black"/>
<path d="M34.0769 19.78C33.1899 16.5989 29.3235 11.6048 29.8036 2.85523C29.8154 2.64102 29.7385 2.43133 29.5909 2.27539C29.4434 2.11953 29.2381 2.03125 29.0235 2.03125H10.9767C10.7621 2.03125 10.5568 2.11953 10.4093 2.27539C10.2618 2.43125 10.1849 2.64094 10.1966 2.85523C10.6744 11.5645 6.81964 16.6098 5.91768 19.7734C4.28682 25.4773 6.94729 32.8445 10.675 37.6654C10.823 37.8567 11.0512 37.9688 11.2931 37.9688H28.7079C28.9497 37.9688 29.1779 37.8567 29.3259 37.6655C32.8739 33.0784 35.6526 25.4095 34.0769 19.78ZM9.72206 14.8573C11.1869 11.1471 11.8811 7.36195 11.7893 3.59383H28.2107C28.119 7.36047 28.813 11.1448 30.2773 14.8555C30.3393 15.0127 30.4043 15.1712 30.4716 15.3315C27.2572 16.8542 23.6531 17.6562 20.0001 17.6562C16.3471 17.6562 12.7428 16.8542 9.52846 15.3315C9.59495 15.1727 9.65971 15.015 9.72206 14.8573ZM19.2189 36.4062H11.6803C7.65628 31.0269 6.45542 24.9225 7.22503 21.0145C11.4557 22.6387 15.4639 26.1384 19.2189 28.9823V36.4062ZM7.64706 19.5034C7.91034 18.7753 8.23815 18.0973 8.60448 17.341C8.69706 17.15 8.7912 16.9553 8.88628 16.7559C12.3022 18.3691 16.1267 19.2188 20.0001 19.2188C23.8734 19.2188 27.6978 18.3691 31.1137 16.756C31.2085 16.9548 31.3022 17.1488 31.3944 17.3391C31.7612 18.0965 32.0892 18.7755 32.3497 19.5045C27.8842 21.1853 23.676 24.817 20.0001 27.6145C16.3084 24.8053 12.1138 21.1838 7.64706 19.5034ZM28.3193 36.4062H20.7814V28.9823C24.5629 26.1177 28.5464 22.6416 32.7627 21.0191C33.6917 25.9564 31.2693 32.4195 28.3193 36.4062Z" fill="black"/>
<path d="M28.1596 13.5889C27.8179 12.5456 27.5309 11.4886 27.3066 10.4473C27.2158 10.0256 26.8001 9.75698 26.3784 9.84807C25.9566 9.93893 25.6884 10.3545 25.7792 10.7763C26.0149 11.8706 26.3162 12.9805 26.6747 14.0753C26.8087 14.4846 27.2495 14.7091 27.6603 14.5745C28.0704 14.4403 28.2939 13.999 28.1596 13.5889Z" fill="black"/>
<path d="M39.2187 8.28122H34.3861L36.1774 6.48989C36.4825 6.18481 36.4825 5.69012 36.1774 5.38497C35.8723 5.07981 35.3776 5.07989 35.0725 5.38497L31.9475 8.50997C31.6424 8.81504 31.6424 9.30973 31.9475 9.61489L35.0725 12.7399C35.3775 13.045 35.8722 13.045 36.1774 12.7399C36.4825 12.4348 36.4825 11.9401 36.1774 11.635L34.3861 9.84372H39.2187C39.6502 9.84372 40 9.49395 40 9.06247C40 8.63098 39.6502 8.28122 39.2187 8.28122Z" fill="black"/>
<path d="M8.0525 8.51006L4.9275 5.38506C4.62242 5.07998 4.12773 5.07998 3.82258 5.38506C3.51742 5.69014 3.5175 6.18482 3.82258 6.48998L5.61391 8.28123H0.78125C0.349766 8.28123 0 8.631 0 9.06248C0 9.49397 0.349766 9.84373 0.78125 9.84373H5.61391L3.82258 11.6351C3.5175 11.9401 3.5175 12.4348 3.82258 12.74C4.12766 13.0451 4.62234 13.0451 4.9275 12.74L8.0525 9.61498C8.35758 9.3099 8.35758 8.81522 8.0525 8.51006Z" fill="black"/>
</svg>
