<svg width="40" height="40" viewBox="0 0 40 40" fill="none" xmlns="http://www.w3.org/2000/svg">
<g clip-path="url(#clip0_2904_1417)">
<path d="M34.4929 30.9369C34.0617 30.9369 33.7117 31.2869 33.7117 31.7181C33.7117 32.1492 34.0617 32.4992 34.4929 32.4992C34.9249 32.4992 35.2741 32.1492 35.2741 31.7181C35.2741 31.2869 34.9249 30.9369 34.4929 30.9369Z" fill="black"/>
<path d="M39.9622 23.9131C39.9622 20.8536 38.2268 18.6009 35.32 17.8868C31.5119 16.9513 26.6536 18.8422 24.1618 22.9182C23.1249 22.5369 22.0572 22.3436 20.9788 22.3436C19.3675 22.3436 17.1354 22.7804 15.3876 23.7212C15.3012 22.6799 15.1768 21.8412 15.0761 21.1116C14.6895 18.4147 15.845 16.5104 15.8885 16.3768C17.1545 17.2067 18.6432 17.6564 20.1718 17.6564C24.4793 17.6564 27.9838 14.152 27.9838 9.84438C27.9838 5.5368 24.4793 2.03235 20.1718 2.03235C16.2896 2.03235 13.0169 4.87141 12.4481 8.67891C8.07762 13.2586 4.34481 18.4073 1.35161 23.9868C0.0517624 26.4114 -0.427847 27.7665 0.435044 30.567C0.805122 31.7674 1.32833 32.5471 2.03457 32.9502C7.85411 36.2756 15.2148 37.9677 21.7351 37.9677C25.6525 37.9677 29.9879 37.7309 35.1425 36.0133C40.7484 34.1368 39.9622 28.4876 39.9622 23.9131ZM20.1718 3.59469C23.6179 3.59469 26.4215 6.39829 26.4215 9.8443C26.4215 13.2903 23.6179 16.0939 20.1718 16.0939C16.7203 16.0939 13.9222 13.2944 13.9222 9.8443C13.9222 6.3868 16.7164 3.59469 20.1718 3.59469ZM34.6475 34.5315C29.9803 36.0867 26.1101 36.4054 21.735 36.4054C15.1572 36.4054 8.08223 34.6066 2.80934 31.5936C2.47825 31.4046 2.16528 30.8766 1.92809 30.107C1.22957 27.8396 1.572 26.8824 2.72848 24.7253C5.39215 19.7601 8.65637 15.1448 12.4431 10.9791C12.6856 12.6347 13.4539 14.1723 14.6443 15.3642L14.3954 15.8744C12.9943 18.7402 13.5348 21.2408 13.535 21.3684C13.7091 22.5771 13.874 23.8706 13.9014 25.1407C13.9226 26.0939 13.8657 26.9228 13.7273 27.6747C13.6392 28.1538 14.0069 28.5974 14.4965 28.5974C14.8661 28.5974 15.1947 28.334 15.2639 27.9574C15.4017 27.2086 15.4689 26.4025 15.4679 25.5045C16.9293 24.4645 19.3368 23.9061 20.9788 23.9061C22.5808 23.9061 24.1262 24.4293 25.4796 25.3363C25.838 25.5764 26.3232 25.4806 26.5634 25.1222C26.8036 24.7638 26.7078 24.2785 26.3493 24.0384C26.1022 23.8727 25.8486 23.7178 25.5909 23.5747C27.8253 20.0575 31.9903 18.6777 34.9472 19.4041C36.2366 19.7209 38.3997 20.7278 38.3997 23.9131C38.3997 28.6139 39.0972 33.042 34.6475 34.5315Z" fill="black"/>
<path d="M32.3927 32.7865C32.2835 32.369 31.8566 32.1192 31.4392 32.2285C27.9059 33.1529 24.6867 33.2803 21.7344 33.2803C20.6654 33.2803 19.4604 33.2286 18.5109 33.1421C18.0805 33.1025 17.7012 33.4195 17.662 33.8491C17.6229 34.2788 17.9394 34.6589 18.3691 34.698C19.3628 34.7886 20.6208 34.8427 21.7343 34.8427C24.6445 34.8427 28.1204 34.7117 31.8346 33.74C32.2521 33.6309 32.5019 33.204 32.3927 32.7865Z" fill="black"/>
<path d="M20.1719 5.1571C17.5874 5.1571 15.4847 7.25976 15.4847 9.84437C15.4847 12.4289 17.5874 14.5316 20.1719 14.5316C22.7565 14.5316 24.8591 12.4289 24.8591 9.84437C24.8591 7.25984 22.7565 5.1571 20.1719 5.1571ZM20.1719 12.9691C18.4489 12.9691 17.0471 11.5673 17.0471 9.84429C17.0471 8.12125 18.4489 6.71945 20.1719 6.71945C21.895 6.71945 23.2968 8.12125 23.2968 9.84429C23.2968 11.5673 21.895 12.9691 20.1719 12.9691Z" fill="black"/>
</g>
<defs>
<clipPath id="clip0_2904_1417">
<rect width="40" height="40" fill="white"/>
</clipPath>
</defs>
</svg>
