<svg width="40" height="40" viewBox="0 0 40 40" fill="none" xmlns="http://www.w3.org/2000/svg">
<g clip-path="url(#clip0_2904_1414)">
<path d="M33.7496 9.84375C33.3183 9.84375 32.9683 10.1937 32.9683 10.625C32.9683 11.0562 33.3183 11.4062 33.7496 11.4062C34.1808 11.4062 34.5308 11.0562 34.5308 10.625C34.5308 10.1937 34.1808 9.84375 33.7496 9.84375Z" fill="black"/>
<path d="M36.0934 12.1875C35.6619 12.1875 35.3122 12.5373 35.3122 12.9688C35.3122 13.8303 34.6112 14.5313 33.7497 14.5313C32.8881 14.5313 32.1872 13.8303 32.1872 12.9688C32.1872 12.9085 32.1904 12.851 32.1966 12.7978C32.2472 12.3693 31.9408 11.981 31.5123 11.9303C31.0836 11.8797 30.6954 12.186 30.6448 12.6146C30.6314 12.7283 30.6246 12.8474 30.6246 12.9687C30.6246 14.6918 32.0264 16.0937 33.7496 16.0937C35.4727 16.0937 36.8747 14.6919 36.8747 12.9688C36.8747 12.5373 36.5249 12.1875 36.0934 12.1875Z" fill="black"/>
<path d="M33.7498 6.71875C30.3035 6.71875 27.4998 9.5225 27.4998 12.9688C27.4998 15.5791 29.0956 17.8225 31.406 18.7616V26.875C31.406 31.2449 27.2442 35.0781 22.4998 35.0781C17.7714 35.0781 13.2677 30.848 13.6477 25.9564C17.3386 25.0344 20.182 22.0049 20.7822 18.1187L22.4602 7.94703C22.9475 5.12656 21.1789 2.40461 18.3973 1.70914L17.895 1.58391C17.3459 0.609922 16.3193 0 15.1763 0C13.4532 0 12.0513 1.40188 12.0513 3.125C12.0513 4.84812 13.4532 6.25 15.1763 6.25C15.5743 6.25 15.9695 6.17234 16.336 6.02609L17.2605 6.25727C17.6555 6.35594 17.9105 6.74711 17.8409 7.14828L17.3347 10.078C17.3342 10.0807 17.3338 10.0834 17.3333 10.0862L16.1541 17.372C15.7812 19.8002 13.7271 21.5625 11.2701 21.5625C8.81321 21.5625 6.75719 19.7883 6.38133 17.3438C6.38094 17.3409 6.38047 17.3381 6.38 17.3353L4.69922 7.14773C4.62969 6.74703 4.88469 6.35586 5.27993 6.25711L6.20422 6.02602C6.57102 6.17242 6.9661 6.25 7.36383 6.25C9.08696 6.25 10.4888 4.84812 10.4888 3.125C10.4888 1.40188 9.08696 0 7.36383 0C6.22086 0 5.19414 0.609922 4.64516 1.58398L4.14313 1.7093C1.37914 2.40008 -0.405308 5.14023 0.0796915 7.94133L1.75407 18.0898C2.35243 21.9695 5.20258 25.0549 8.9479 25.9704C8.59649 33.3591 15.0761 40 22.4998 40C29.4795 40 36.0935 34.3434 36.0935 27.1094V18.7616C38.3983 17.8248 39.9998 15.5852 39.9998 12.9688C39.9998 9.5225 37.196 6.71875 33.7498 6.71875ZM15.1763 4.6875C14.3148 4.6875 13.6138 3.98656 13.6138 3.125C13.6138 2.26344 14.3148 1.5625 15.1763 1.5625C16.0659 1.5625 16.7388 2.28539 16.7388 3.125C16.7388 3.99062 16.0381 4.6875 15.1763 4.6875ZM7.36383 1.5625C8.2254 1.5625 8.92633 2.26344 8.92633 3.125C8.92633 3.98656 8.2254 4.6875 7.36383 4.6875C6.50133 4.6875 5.80133 3.99023 5.80133 3.125C5.80133 2.28367 6.47602 1.5625 7.36383 1.5625ZM3.29782 17.8477C3.29743 17.8448 3.29696 17.842 3.29649 17.8392L1.62039 7.68078C1.28977 5.77125 2.43055 3.90609 4.24508 3.30656C4.27602 3.84422 4.44352 4.35375 4.72196 4.79437C3.64016 5.15875 2.96172 6.2732 3.15868 7.40844L4.83766 17.5854C5.33321 20.7955 8.03774 23.125 11.2701 23.125C14.5041 23.125 17.2076 20.8053 17.6976 17.6155L18.8751 10.3397L19.3805 7.41484C19.5784 6.27352 18.8998 5.15859 17.8181 4.79445C18.0966 4.35375 18.2642 3.84422 18.2951 3.30641C20.1095 3.90586 21.2505 5.77148 20.9196 7.68687L19.2399 17.8681C19.2395 17.8709 19.2391 17.8737 19.2386 17.8764C18.647 21.7189 15.3447 24.6978 11.2498 24.687C7.15844 24.6761 3.89094 21.705 3.29782 17.8477ZM34.531 27.1094C34.531 33.144 28.909 38.4375 22.4998 38.4375C16.0041 38.4375 10.3057 32.6281 10.5027 26.2191C10.7579 26.2391 11.0141 26.25 11.27 26.25C11.5368 26.25 11.8031 26.2386 12.0677 26.2172C11.8631 31.8977 17.0374 36.6406 22.4998 36.6406C27.8252 36.6406 32.9685 32.321 32.9685 26.875V19.1692C33.2266 19.2015 33.4873 19.2188 33.7498 19.2188C34.0123 19.2188 34.2731 19.2015 34.531 19.1693V27.1094ZM33.6716 17.6547C31.0759 17.6123 29.0623 15.4696 29.0623 12.9688C29.0623 10.3841 31.1651 8.28125 33.7498 8.28125C36.3345 8.28125 38.4373 10.3841 38.4373 12.9688C38.4373 15.5236 36.339 17.6983 33.6716 17.6547Z" fill="black"/>
</g>
<defs>
<clipPath id="clip0_2904_1414">
<rect width="40" height="40" fill="white"/>
</clipPath>
</defs>
</svg>
