<svg width="40" height="40" viewBox="0 0 40 40" fill="none" xmlns="http://www.w3.org/2000/svg">
<g clip-path="url(#clip0_2904_1460)">
<path d="M35.5235 4.47666C35.2188 4.17119 34.7236 4.17119 34.4189 4.47666C34.1135 4.78135 34.1135 5.27658 34.4189 5.58127C34.7236 5.88674 35.2188 5.88674 35.5235 5.58127C35.829 5.27666 35.829 4.78135 35.5235 4.47666Z" fill="black"/>
<path d="M26.8018 19.448C26.4971 19.1425 26.0019 19.1425 25.6972 19.448C25.3917 19.7527 25.3917 20.2479 25.6972 20.5526C26.0019 20.858 26.4971 20.858 26.8018 20.5526C27.1073 20.2479 27.1073 19.7527 26.8018 19.448Z" fill="black"/>
<path d="M23.677 16.3232C23.3723 16.0177 22.877 16.0177 22.5724 16.3232C22.2669 16.6279 22.2669 17.1231 22.5724 17.4278C22.877 17.7333 23.3723 17.7333 23.677 17.4278C23.9824 17.1231 23.9824 16.6278 23.677 16.3232Z" fill="black"/>
<path d="M23.677 22.5726C23.3723 22.2671 22.877 22.2671 22.5724 22.5726C22.2669 22.8773 22.2669 23.3725 22.5724 23.6772C22.877 23.9827 23.3723 23.9827 23.677 23.6772C23.9824 23.3725 23.9824 22.8773 23.677 22.5726Z" fill="black"/>
<path d="M20.552 13.1985C20.2473 12.8931 19.7521 12.8931 19.4474 13.1985C19.142 13.5032 19.142 13.9984 19.4474 14.3031C19.7521 14.6086 20.2473 14.6086 20.552 14.3031C20.8575 13.9984 20.8575 13.5032 20.552 13.1985Z" fill="black"/>
<path d="M20.552 19.448C20.2473 19.1425 19.7521 19.1425 19.4474 19.448C19.142 19.7527 19.142 20.2479 19.4474 20.5526C19.7521 20.858 20.2473 20.858 20.552 20.5526C20.8575 20.2479 20.8575 19.7527 20.552 19.448Z" fill="black"/>
<path d="M20.552 25.6974C20.2473 25.3919 19.7521 25.3919 19.4474 25.6974C19.142 26.002 19.142 26.4973 19.4474 26.802C19.7521 27.1074 20.2473 27.1074 20.552 26.802C20.8575 26.4973 20.8575 26.002 20.552 25.6974Z" fill="black"/>
<path d="M17.4275 16.3232C17.1228 16.0177 16.6276 16.0177 16.3229 16.3232C16.0174 16.6279 16.0174 17.1231 16.3229 17.4278C16.6276 17.7333 17.1228 17.7333 17.4275 17.4278C17.733 17.1231 17.733 16.6278 17.4275 16.3232Z" fill="black"/>
<path d="M17.4275 22.5726C17.1228 22.2671 16.6276 22.2671 16.3229 22.5726C16.0174 22.8773 16.0174 23.3725 16.3229 23.6772C16.6276 23.9827 17.1228 23.9827 17.4275 23.6772C17.733 23.3725 17.733 22.8773 17.4275 22.5726Z" fill="black"/>
<path d="M14.303 19.448C13.9983 19.1425 13.5031 19.1425 13.1984 19.448C12.8929 19.7527 12.8929 20.2479 13.1984 20.5526C13.5031 20.858 13.9983 20.858 14.303 20.5526C14.6084 20.2479 14.6084 19.7527 14.303 19.448Z" fill="black"/>
<path d="M32.1516 19.9995L37.4807 14.6703C40.8388 11.3122 40.8393 5.87669 37.4807 2.51818C34.1229 -0.839622 28.6869 -0.840247 25.3284 2.51818L19.9993 7.84731L14.6702 2.51818C11.3118 -0.840013 5.87669 -0.840404 2.51795 2.51818C-0.839935 5.87622 -0.840325 11.312 2.51795 14.6704L7.84708 19.9996L2.51795 25.3287C-0.839857 28.6867 -0.840247 34.1226 2.51803 37.4809C5.87583 40.8387 11.3118 40.8393 14.6703 37.4809L19.9993 32.1517L25.3284 37.4809C28.6864 40.8387 34.1223 40.8392 37.4807 37.4809C40.8386 34.1228 40.839 28.687 37.4807 25.3286L32.1516 19.9995ZM26.4332 3.6231C29.1744 0.881859 33.6346 0.881781 36.3758 3.6231C39.1234 6.37068 39.1237 10.8179 36.3758 13.5657L31.0466 18.8948L21.1042 8.95223L26.4332 3.6231ZM3.62279 13.5657C0.881546 10.8246 0.881546 6.36427 3.62279 3.6231C6.37036 0.875531 10.8175 0.87514 13.5653 3.6231L18.8945 8.95223L8.95192 18.8949L3.62279 13.5657ZM13.5654 36.3761C10.8243 39.1173 6.36388 39.1173 3.62287 36.3761C0.881624 33.6349 0.881624 29.1746 3.62287 26.4335L8.952 21.1044L18.8946 31.047L13.5654 36.3761ZM10.0568 19.9996L19.9994 10.057L29.942 19.9996L19.9993 29.9423L10.0568 19.9996ZM36.3758 36.3761C33.6347 39.1173 29.1743 39.1173 26.4333 36.3761L21.1042 31.047L31.0468 21.1044L36.3758 26.4334C39.1171 29.1746 39.1171 33.6349 36.3758 36.3761Z" fill="black"/>
<path d="M36.822 7.86045C36.7645 7.43288 36.3715 7.13303 35.9436 7.19038C35.516 7.24788 35.2161 7.64108 35.2736 8.06874C35.4379 9.29069 35.0346 10.4893 34.1674 11.3572L30.495 15.0295C30.19 15.3346 30.19 15.8292 30.495 16.1343C30.8001 16.4393 31.2947 16.4393 31.5998 16.1343L35.2723 12.4617C36.487 11.2462 37.0518 9.56904 36.822 7.86045Z" fill="black"/>
</g>
<defs>
<clipPath id="clip0_2904_1460">
<rect width="40" height="40" fill="white"/>
</clipPath>
</defs>
</svg>
