<svg width="40" height="40" viewBox="0 0 40 40" fill="none" xmlns="http://www.w3.org/2000/svg">
<g clip-path="url(#clip0_2904_1455)">
<path d="M19.9998 17.655C19.5685 17.655 19.2185 18.005 19.2185 18.4363C19.2185 18.8675 19.5684 19.2175 19.9998 19.2175C20.431 19.2175 20.781 18.8675 20.781 18.4363C20.781 18.005 20.4311 17.655 19.9998 17.655Z" fill="black"/>
<path d="M39.444 15.3585C38.9979 14.8319 38.3464 14.53 37.6565 14.53H30.8736L35.4268 9.3702C36.6247 9.34145 37.7738 8.85497 38.6279 8.00082C40.4547 6.17293 40.4547 3.19894 38.6276 1.37081C36.7997 -0.456148 33.8257 -0.456148 31.9976 1.37096C31.1439 2.22472 30.6576 3.37331 30.6286 4.57074L19.3021 14.53H2.34326C1.6535 14.53 1.00201 14.832 0.555759 15.3585C0.10943 15.8853 -0.0815082 16.578 0.0320076 17.2595L0.284977 18.7773C1.40435 25.4959 6.31405 30.9013 12.4855 33.3738L11.0475 36.6257C10.6912 37.3531 10.7323 38.1971 11.1588 38.8874C11.5891 39.5836 12.3345 39.9993 13.153 39.9993H26.847C27.6654 39.9993 28.4109 39.5836 28.8411 38.8874C29.2676 38.1971 29.3087 37.3531 28.9525 36.6257L27.5144 33.3737C33.7151 30.8888 38.6004 25.4675 39.7151 18.7762L39.968 17.2592C40.0813 16.5782 39.8904 15.8854 39.444 15.3585ZM33.1025 2.47597C34.3207 1.25839 36.3039 1.25745 37.5227 2.47573C38.7408 3.69449 38.7408 5.67746 37.5229 6.89605C36.3056 8.11332 34.3231 8.11653 33.1026 6.89605C31.8759 5.66925 31.892 3.68659 33.1025 2.47597ZM30.9411 6.37683C31.1744 6.9809 31.5318 7.53496 31.9978 8.00098C32.4632 8.46645 33.0166 8.82356 33.6197 9.05684L28.7899 14.53H21.6686L30.9411 6.37683ZM27.546 37.3067C27.7217 37.6578 27.5806 37.9547 27.5118 38.0661C27.4428 38.1776 27.2402 38.4369 26.8469 38.4369H13.1529C12.7596 38.4369 12.557 38.1776 12.488 38.0661C12.4192 37.9548 12.2781 37.6578 12.4538 37.3067C12.4705 37.2731 12.3694 37.4991 13.9605 33.9017C15.9338 34.526 17.9617 34.8431 19.9999 34.8431C22.0374 34.8431 24.0653 34.526 26.0392 33.9016C27.6246 37.4857 27.5293 37.2728 27.546 37.3067ZM38.4266 17.0022L38.3178 17.6551H23.1249C22.6935 17.6551 22.3437 18.0048 22.3437 18.4363C22.3437 18.8678 22.6935 19.2098 23.1249 19.2098H38.0409C36.7935 25.0884 32.3172 30.0306 26.2053 32.1988C26.2051 32.1988 26.205 32.1988 26.205 32.1988C24.1841 32.9165 22.0964 33.2803 19.9999 33.2803C17.9018 33.2803 15.8134 32.9162 13.7922 32.198C7.68132 30.0299 3.20592 25.0953 1.95881 19.2175H16.8748C17.3062 19.2175 17.656 18.8677 17.656 18.4362C17.656 18.0047 17.3062 17.655 16.8748 17.655H1.68201L1.57326 17.0024C1.5349 16.772 1.59693 16.5469 1.74795 16.3687C1.89881 16.1906 2.11021 16.0926 2.34318 16.0926H37.6566C37.8896 16.0926 38.101 16.1906 38.2519 16.3687C38.4029 16.5469 38.465 16.7721 38.4266 17.0022Z" fill="black"/>
<path d="M23.1252 25.4677H20.7815V23.1239C20.7815 22.6924 20.4316 22.3427 20.0002 22.3427C19.5688 22.3427 19.219 22.6924 19.219 23.1239V25.4677H16.8751C16.4437 25.4677 16.0939 25.8175 16.0939 26.249C16.0939 26.6805 16.4437 27.0302 16.8751 27.0302H19.219V29.3741C19.219 29.8056 19.5688 30.1553 20.0002 30.1553C20.4316 30.1553 20.7815 29.8056 20.7815 29.3741V27.0302H23.1252C23.5566 27.0302 23.9065 26.6805 23.9065 26.249C23.9065 25.8175 23.5567 25.4677 23.1252 25.4677Z" fill="black"/>
</g>
<defs>
<clipPath id="clip0_2904_1455">
<rect width="40" height="40" fill="white"/>
</clipPath>
</defs>
</svg>
