<svg width="40" height="40" viewBox="0 0 40 40" fill="none" xmlns="http://www.w3.org/2000/svg">
<g clip-path="url(#clip0_2904_1457)">
<path d="M37.8838 34.0395C32.6246 29.0094 28.4894 25.1622 25.2549 22.0571C26.7681 20.455 28.6207 18.0764 29.8032 15.096C31.4554 10.9345 30.7741 6.04532 27.4831 2.95782C25.3643 0.970549 22.6617 0 20.0027 0C15.4035 0 11.2699 2.90461 9.71672 7.22767C9.04437 9.09822 8.9814 11.2126 9.53492 13.3424C10.1962 15.8838 11.7317 18.3947 14.7825 21.8945L2.11553 34.0402C1.96389 34.1855 1.87733 34.3858 1.87498 34.5958C1.87272 34.8059 1.95522 35.0079 2.10373 35.1564L6.71796 39.7705C7.02562 40.0781 7.52499 40.0749 7.82875 39.7644L19.9335 27.3886C23.1331 30.6575 27.2283 34.704 32.17 39.7647C32.4737 40.0757 32.9734 40.079 33.2813 39.7713L37.8962 35.1563C38.0448 35.0077 38.1273 34.8055 38.125 34.5953C38.1226 34.3851 38.0356 34.1848 37.8838 34.0395ZM26.4141 4.0972C29.1028 6.6197 29.8632 10.7107 28.3511 14.5198C27.2247 17.3587 25.3875 19.6331 24.1299 20.9717C22.9378 19.8146 21.9603 18.84 21.1238 17.9745C23.9152 15.2606 26.2517 11.7052 26.2517 7.81119C26.2517 6.04767 25.8337 4.37907 25.0683 3.04735C25.5442 3.35352 25.995 3.70415 26.4141 4.0972ZM20.0027 1.56227C22.5859 1.56227 24.0867 3.66977 24.5435 6.18282C23.4077 5.23103 21.9581 4.68681 20.4151 4.68681H19.5902C18.0461 4.68681 16.5963 5.23118 15.4604 6.18353C15.9013 3.74016 17.3624 1.56227 20.0027 1.56227ZM19.5903 6.249H20.4152C22.1734 6.249 23.7722 7.1815 24.6403 8.69681C24.3497 11.3554 22.7321 14.2214 20.0499 16.8393C16.8636 13.3907 15.5939 11.1815 15.3577 8.70939C16.2243 7.18658 17.8265 6.249 19.5903 6.249ZM7.26414 38.1073L3.77257 34.6158L15.8221 23.0621C16.668 23.9938 17.6502 25.0363 18.8433 26.2689L7.26414 38.1073ZM32.7352 38.108C19.0237 24.0961 12.4902 18.4962 11.047 12.9492C10.573 11.1253 10.6213 9.32947 11.187 7.75595C11.8967 5.7804 13.2357 4.15032 14.9285 3.0593C14.1676 4.38884 13.7537 6.05056 13.7537 7.81126C13.7537 14.443 19.3631 18.5131 36.2265 34.6166L32.7352 38.108Z" fill="black"/>
</g>
<defs>
<clipPath id="clip0_2904_1457">
<rect width="40" height="40" fill="white"/>
</clipPath>
</defs>
</svg>
