<svg width="40" height="40" viewBox="0 0 40 40" fill="none" xmlns="http://www.w3.org/2000/svg">
<path d="M33.1641 6.39343C32.7328 6.39343 32.3828 6.74343 32.3828 7.17468C32.3828 7.60593 32.7328 7.95593 33.1641 7.95593C33.5953 7.95593 33.9453 7.60593 33.9453 7.17468C33.9453 6.74335 33.5953 6.39343 33.1641 6.39343Z" fill="black"/>
<path d="M37.2233 5.60626C35.3588 3.51071 32.7727 2.35665 29.9414 2.35665C26.8454 2.35665 24.0202 3.55672 21.7716 5.82719C20.9896 6.61665 20.4052 7.4054 20 8.03133C19.5948 7.40547 19.0104 6.6168 18.2284 5.82719C15.9798 3.55665 13.1547 2.35657 10.0586 2.35657C4.13234 2.35657 0 7.31446 0 13.209C0 21.1713 8.43781 27.8756 19.4884 37.4524C19.6352 37.5797 19.8176 37.6433 20 37.6433C20.1824 37.6433 20.3648 37.5797 20.5116 37.4524C31.5885 27.8527 40 21.1602 40 13.209C40 10.3188 39.0139 7.61876 37.2233 5.60626ZM20 35.8286C9.56492 26.7986 1.5625 20.313 1.5625 13.209C1.5625 7.9129 5.215 3.91915 10.0586 3.91915C12.748 3.91915 15.1102 4.91805 17.0798 6.88797C18.5802 8.38876 19.2803 9.9204 19.2872 9.93571C19.4129 10.2159 19.6916 10.3959 19.9988 10.3966C19.9993 10.3966 19.9998 10.3966 20.0003 10.3966C20.3075 10.3966 20.5866 10.2159 20.7129 9.93571C20.7198 9.9204 21.4198 8.38883 22.9203 6.88797C24.8898 4.91797 27.252 3.91915 29.9415 3.91915C34.7851 3.91915 38.4376 7.9129 38.4376 13.209C38.4375 20.4734 29.907 27.2556 20 35.8286Z" fill="black"/>
<path d="M35.8965 9.17662C35.6961 8.79443 35.2238 8.64725 34.8418 8.84756C34.4597 9.04795 34.3123 9.52014 34.5127 9.90225C35.0284 10.8856 35.3124 12.06 35.3124 13.209C35.3124 15.4665 34.238 17.8626 31.931 20.7494C31.6616 21.0865 31.7166 21.5781 32.0536 21.8475C32.3928 22.1186 32.884 22.0598 33.1516 21.7249C35.6918 18.5462 36.8749 15.8401 36.8749 13.209C36.8749 11.7915 36.5366 10.3972 35.8965 9.17662Z" fill="black"/>
<path d="M27.5 17.3309H23.125V12.9559C23.125 12.5244 22.7752 12.1747 22.3438 12.1747H17.6562C17.2248 12.1747 16.875 12.5244 16.875 12.9559V17.3309H12.5C12.0685 17.3309 11.7188 17.6807 11.7188 18.1122V22.7997C11.7188 23.2312 12.0685 23.5809 12.5 23.5809H16.875V27.9559C16.875 28.3874 17.2248 28.7372 17.6562 28.7372H22.3438C22.7752 28.7372 23.125 28.3874 23.125 27.9559V23.5809H27.5C27.9315 23.5809 28.2812 23.2312 28.2812 22.7997V18.1122C28.2812 17.6807 27.9315 17.3309 27.5 17.3309ZM26.7188 22.0184H22.3438C21.9123 22.0184 21.5625 22.3681 21.5625 22.7996V27.1746H18.4375V22.7996C18.4375 22.3681 18.0877 22.0184 17.6562 22.0184H13.2812V18.8934H17.6562C18.0877 18.8934 18.4375 18.5436 18.4375 18.1121V13.7371H21.5625V18.1121C21.5625 18.5436 21.9123 18.8934 22.3438 18.8934H26.7188V22.0184Z" fill="black"/>
</svg>
