<svg id='arrow' width="50" height="50" viewBox="0 0 50 50" fill="none" xmlns="http://www.w3.org/2000/svg">
<path opacity="0.8" d="M25.0005 50.0005C11.213 50.0005 0.000488281 38.7855 0.000488281 25.0005C0.000488281 11.2155 11.213 0.000488281 25.0005 0.000488281C38.7855 0.000488281 50.0005 11.2155 50.0005 25.0005C50.0005 38.7855 38.7855 50.0005 25.0005 50.0005" fill="#062126" fill-opacity="0.8"/>
<path d="M28.6065 35.5522C28.129 35.5522 27.649 35.3697 27.284 35.0047L18.5665 26.3297C18.214 25.9772 18.0165 25.4997 18.0165 24.9997C18.0165 24.5022 18.214 24.0247 18.5665 23.6722L27.284 14.9922C28.0165 14.2622 29.2015 14.2622 29.934 14.9972C30.664 15.7322 30.6615 16.9197 29.929 17.6497L22.5465 24.9997L29.929 32.3497C30.6615 33.0797 30.664 34.2647 29.934 34.9997C29.569 35.3697 29.0865 35.5522 28.6065 35.5522" fill="#062126" fill-opacity="0.8"/>
</svg>
