<svg id="arrow-new" viewBox="0 0 30 30" fill="none" xmlns="http://www.w3.org/2000/svg">
<path opacity="0.4" d="M15 2.49976C21.8937 2.49976 27.5 8.10726 27.5 14.9998C27.5 21.8923 21.8937 27.4998 15 27.4998C8.1075 27.4998 2.5 21.8923 2.5 14.9998C2.5 8.10726 8.1075 2.49976 15 2.49976" fill="#24BEE0"/>
<path d="M13.197 9.72391C13.4357 9.72391 13.6757 9.81515 13.8582 9.99765L18.217 14.3352C18.3932 14.5114 18.492 14.7502 18.492 15.0002C18.492 15.2489 18.3932 15.4877 18.217 15.6639L13.8582 20.0039C13.492 20.3689 12.8995 20.3689 12.5332 20.0014C12.1682 19.6339 12.1695 19.0402 12.5357 18.6752L16.227 15.0002L12.5357 11.3252C12.1695 10.9602 12.1682 10.3677 12.5332 10.0002C12.7157 9.81516 12.957 9.72391 13.197 9.72391" fill="#24BEE0"/>
</svg>
