<svg id="send" width="20" height="21" viewBox="0 0 20 21"  xmlns="http://www.w3.org/2000/svg">
<path d="M17.8629 2.65173C17.4461 2.22391 16.8291 2.06453 16.2539 2.2323L2.84008 6.13302C2.23316 6.30163 1.80299 6.78565 1.68711 7.40054C1.56872 8.02633 1.98223 8.82074 2.52245 9.15293L6.71667 11.7308C7.14684 11.995 7.70207 11.9287 8.05805 11.5697L12.8608 6.737C13.1026 6.48534 13.5028 6.48534 13.7445 6.737C13.9863 6.98027 13.9863 7.37454 13.7445 7.6262L8.93341 12.4597C8.57659 12.8179 8.5099 13.3758 8.77251 13.8086L11.3352 18.0449C11.6353 18.5482 12.1522 18.8334 12.7191 18.8334C12.7858 18.8334 12.8608 18.8334 12.9275 18.825C13.5778 18.7411 14.0947 18.2965 14.2864 17.6674L18.2631 4.27074C18.4381 3.70031 18.2797 3.07955 17.8629 2.65173" fill="white"/>
</svg>
