<svg id='star' width="136" height="24" viewBox="0 0 136 24" fill="none" xmlns="http://www.w3.org/2000/svg">
<path d="M17.9184 14.3201C17.6594 14.5711 17.5404 14.9341 17.5994 15.2901L18.4884 20.2101C18.5634 20.6271 18.3874 21.0491 18.0384 21.2901C17.6964 21.5401 17.2414 21.5701 16.8684 21.3701L12.4394 19.0601C12.2854 18.9781 12.1144 18.9341 11.9394 18.9291H11.6684C11.5744 18.9431 11.4824 18.9731 11.3984 19.0191L6.96839 21.3401C6.74939 21.4501 6.50139 21.4891 6.25839 21.4501C5.66639 21.3381 5.27139 20.7741 5.36839 20.1791L6.25839 15.2591C6.31739 14.9001 6.19839 14.5351 5.93939 14.2801L2.32839 10.7801C2.02639 10.4871 1.92139 10.0471 2.05939 9.65012C2.19339 9.25412 2.53539 8.96512 2.94839 8.90012L7.91839 8.17912C8.29639 8.14012 8.62839 7.91012 8.79839 7.57012L10.9884 3.08012C11.0404 2.98012 11.1074 2.88812 11.1884 2.81012L11.2784 2.74012C11.3254 2.68812 11.3794 2.64512 11.4394 2.61012L11.5484 2.57012L11.7184 2.50012H12.1394C12.5154 2.53912 12.8464 2.76412 13.0194 3.10012L15.2384 7.57012C15.3984 7.89712 15.7094 8.12412 16.0684 8.17912L21.0384 8.90012C21.4584 8.96012 21.8094 9.25012 21.9484 9.65012C22.0794 10.0511 21.9664 10.4911 21.6584 10.7801L17.9184 14.3201Z" fill="#CF7D4E"/>
<path d="M45.9184 14.3201C45.6594 14.5711 45.5404 14.9341 45.5994 15.2901L46.4884 20.2101C46.5634 20.6271 46.3874 21.0491 46.0384 21.2901C45.6964 21.5401 45.2414 21.5701 44.8684 21.3701L40.4394 19.0601C40.2854 18.9781 40.1144 18.9341 39.9394 18.9291H39.6684C39.5744 18.9431 39.4824 18.9731 39.3984 19.0191L34.9684 21.3401C34.7494 21.4501 34.5014 21.4891 34.2584 21.4501C33.6664 21.3381 33.2714 20.7741 33.3684 20.1791L34.2584 15.2591C34.3174 14.9001 34.1984 14.5351 33.9394 14.2801L30.3284 10.7801C30.0264 10.4871 29.9214 10.0471 30.0594 9.65012C30.1934 9.25412 30.5354 8.96512 30.9484 8.90012L35.9184 8.17912C36.2964 8.14012 36.6284 7.91012 36.7984 7.57012L38.9884 3.08012C39.0404 2.98012 39.1074 2.88812 39.1884 2.81012L39.2784 2.74012C39.3254 2.68812 39.3794 2.64512 39.4394 2.61012L39.5484 2.57012L39.7184 2.50012H40.1394C40.5154 2.53912 40.8464 2.76412 41.0194 3.10012L43.2384 7.57012C43.3984 7.89712 43.7094 8.12412 44.0684 8.17912L49.0384 8.90012C49.4584 8.96012 49.8094 9.25012 49.9484 9.65012C50.0794 10.0511 49.9664 10.4911 49.6584 10.7801L45.9184 14.3201Z" fill="#CF7D4E"/>
<path d="M73.9184 14.3201C73.6594 14.5711 73.5404 14.9341 73.5994 15.2901L74.4884 20.2101C74.5634 20.6271 74.3874 21.0491 74.0384 21.2901C73.6964 21.5401 73.2414 21.5701 72.8684 21.3701L68.4394 19.0601C68.2854 18.9781 68.1144 18.9341 67.9394 18.9291H67.6684C67.5744 18.9431 67.4824 18.9731 67.3984 19.0191L62.9684 21.3401C62.7494 21.4501 62.5014 21.4891 62.2584 21.4501C61.6664 21.3381 61.2714 20.7741 61.3684 20.1791L62.2584 15.2591C62.3174 14.9001 62.1984 14.5351 61.9394 14.2801L58.3284 10.7801C58.0264 10.4871 57.9214 10.0471 58.0594 9.65012C58.1934 9.25412 58.5354 8.96512 58.9484 8.90012L63.9184 8.17912C64.2964 8.14012 64.6284 7.91012 64.7984 7.57012L66.9884 3.08012C67.0404 2.98012 67.1074 2.88812 67.1884 2.81012L67.2784 2.74012C67.3254 2.68812 67.3794 2.64512 67.4394 2.61012L67.5484 2.57012L67.7184 2.50012H68.1394C68.5154 2.53912 68.8464 2.76412 69.0194 3.10012L71.2384 7.57012C71.3984 7.89712 71.7094 8.12412 72.0684 8.17912L77.0384 8.90012C77.4584 8.96012 77.8094 9.25012 77.9484 9.65012C78.0794 10.0511 77.9664 10.4911 77.6584 10.7801L73.9184 14.3201Z" fill="#CF7D4E"/>
<path d="M101.918 14.3201C101.659 14.5711 101.54 14.9341 101.599 15.2901L102.488 20.2101C102.563 20.6271 102.387 21.0491 102.038 21.2901C101.696 21.5401 101.241 21.5701 100.868 21.3701L96.4394 19.0601C96.2854 18.9781 96.1144 18.9341 95.9394 18.9291H95.6684C95.5744 18.9431 95.4824 18.9731 95.3984 19.0191L90.9684 21.3401C90.7494 21.4501 90.5014 21.4891 90.2584 21.4501C89.6664 21.3381 89.2714 20.7741 89.3684 20.1791L90.2584 15.2591C90.3174 14.9001 90.1984 14.5351 89.9394 14.2801L86.3284 10.7801C86.0264 10.4871 85.9214 10.0471 86.0594 9.65012C86.1934 9.25412 86.5354 8.96512 86.9484 8.90012L91.9184 8.17912C92.2964 8.14012 92.6284 7.91012 92.7984 7.57012L94.9884 3.08012C95.0404 2.98012 95.1074 2.88812 95.1884 2.81012L95.2784 2.74012C95.3254 2.68812 95.3794 2.64512 95.4394 2.61012L95.5484 2.57012L95.7184 2.50012H96.1394C96.5154 2.53912 96.8464 2.76412 97.0194 3.10012L99.2384 7.57012C99.3984 7.89712 99.7094 8.12412 100.068 8.17912L105.038 8.90012C105.458 8.96012 105.809 9.25012 105.948 9.65012C106.079 10.0511 105.966 10.4911 105.658 10.7801L101.918 14.3201Z" fill="#CF7D4E"/>
<path d="M129.918 14.3201C129.659 14.5711 129.54 14.9341 129.599 15.2901L130.488 20.2101C130.563 20.6271 130.387 21.0491 130.038 21.2901C129.696 21.5401 129.241 21.5701 128.868 21.3701L124.439 19.0601C124.285 18.9781 124.114 18.9341 123.939 18.9291H123.668C123.574 18.9431 123.482 18.9731 123.398 19.0191L118.968 21.3401C118.749 21.4501 118.501 21.4891 118.258 21.4501C117.666 21.3381 117.271 20.7741 117.368 20.1791L118.258 15.2591C118.317 14.9001 118.198 14.5351 117.939 14.2801L114.328 10.7801C114.026 10.4871 113.921 10.0471 114.059 9.65012C114.193 9.25412 114.535 8.96512 114.948 8.90012L119.918 8.17912C120.296 8.14012 120.628 7.91012 120.798 7.57012L122.988 3.08012C123.04 2.98012 123.107 2.88812 123.188 2.81012L123.278 2.74012C123.325 2.68812 123.379 2.64512 123.439 2.61012L123.548 2.57012L123.718 2.50012H124.139C124.515 2.53912 124.846 2.76412 125.019 3.10012L127.238 7.57012C127.398 7.89712 127.709 8.12412 128.068 8.17912L133.038 8.90012C133.458 8.96012 133.809 9.25012 133.948 9.65012C134.079 10.0511 133.966 10.4911 133.658 10.7801L129.918 14.3201Z" fill="#CF7D4E"/>
</svg>
